<?xml version="1.0" encoding="UTF-8"?>
<svg id="Layer_1" xmlns="http://www.w3.org/2000/svg" version="1.1" viewBox="0 0 4001 4001">
  <!-- Generator: Adobe Illustrator 30.1.0, SVG Export Plug-In . SVG Version: 2.1.1 Build 136)  -->
  <defs>
    <style>
      .st0 {
        fill: #0c5331;
      }

      .st1 {
        fill: #0f5f39;
      }
    </style>
  </defs>
  <g id="Background">
    <rect class="st1" x=".5" y=".5" width="4000" height="4000"/>
  </g>
  <path class="st0" d="M1997.7,3462.19c-1.18-1.26-6.3-11.2-11.38-22.05-11.08-23.72-18.01-36.45-28.85-52.95-21.12-32.14-52.31-64.82-82.09-85.98-21.01-14.93-33.72-21.47-95.38-49-44.68-19.97-70.81-32.56-87.62-42.24-15.08-8.67-12.5-9.08-16.1-1.39-8.39,18.03-38.56,46.61-66.65,63.14-22.09,13-46.83,23-66.54,26.92-12.7,2.5-40.46,2.52-51.9,0-52.85-11.62-89.01-46.95-107.95-105.49-9.93-30.71-17.22-80.12-7.61-108.61,3.1-9.21,4.82-6.51-8.85-9.97-16.54-4.2-45.25-13.97-78.8-26.81-89.08-34.1-108.54-42.7-170.94-42.54-90.7.24-123.5,29.27-151.61,30.65,1.4-28.2,30.39-60.75,30.64-151.62.17-62.39-8.42-81.86-42.53-170.95-12.84-33.53-22.61-62.24-26.81-78.77-3.48-13.68-.75-11.96-9.97-8.86-19.79,6.65-58.53,5.54-91.28-2.62-68.7-17.08-110.13-55.18-122.83-112.93-2.5-11.46-2.5-39.21,0-51.9,3.93-19.73,13.93-44.47,26.93-66.55,16.44-27.95,45.21-58.31,63.14-66.67,7.54-3.5,7.06-1.64.19-13.17-8.5-14.26-25.32-49.02-43.84-90.56-22-49.3-29.05-63.92-37.72-78.2-22.78-37.54-57.96-73.42-97.25-99.25-16.49-10.84-29.23-17.78-53.01-28.89-14.71-6.86-19.59-9.01-24.72-14.14,5.11-5.11,10.04-7.29,24.72-14.14,23.79-11.11,36.52-18.03,53.01-28.89,39.29-25.81,74.47-61.7,97.25-99.23,8.67-14.29,15.72-28.9,37.72-78.21,18.52-41.54,35.34-76.29,43.84-90.53,6.88-11.55,7.34-9.7-.19-13.2-18-8.39-46.64-38.63-63.14-66.66-12.93-21.95-23.05-46.92-26.77-66-7.24-37.1,1.74-76.16,23.5-105.82,18.86-25.74,50.1-45.52,89.96-56.99,36.97-10.65,77.99-12.74,100.59-5.16,9.1,3.07,6.38,4.78,9.87-8.89,4.2-16.53,13.97-45.24,26.81-78.77,34.11-89.11,42.7-108.56,42.53-170.96-.26-90.84-29.24-123.43-30.64-151.61,28.09,1.39,60.69,30.38,151.61,30.64,62.39.18,81.87-8.43,170.94-42.53,33.55-12.84,62.26-22.6,78.8-26.81,13.67-3.48,11.96-.74,8.85-9.96-6.65-19.8-5.55-58.53,2.61-91.29,17.09-68.75,55.15-110.11,112.95-122.8,11.45-2.52,39.2-2.52,51.9,0,19.71,3.9,44.45,13.9,66.54,26.89,28.09,16.55,58.26,45.12,66.65,63.16,3.59,7.68,1.03,7.3,16.1-1.38,16.82-9.68,42.95-22.28,87.62-42.24,61.66-27.55,74.37-34.09,95.38-49.02,29.85-21.19,60.93-53.76,82.09-85.98,10.85-16.51,17.77-29.24,28.87-53.02,6.87-14.71,9.05-19.6,14.16-24.75,5.13,5.15,7.28,10.02,14.16,24.75,11.11,23.79,18.03,36.52,28.88,53.02,25.82,39.28,61.72,74.46,99.25,97.25,14.25,8.66,28.82,15.68,78.2,37.72,44.28,19.76,70.62,32.45,87.64,42.26,15.06,8.68,12.53,9.06,16.09,1.38,8.4-17.99,38.64-46.65,66.67-63.16,22.08-13,46.83-23,66.54-26.89,12.7-2.52,40.45-2.52,51.89,0,52.81,11.59,89.02,46.98,107.96,105.46,9.93,30.7,17.22,80.12,7.61,108.63-3.11,9.23-4.82,6.48,8.85,9.96,16.53,4.21,45.24,13.97,78.78,26.81,89.05,34.1,108.59,42.71,170.96,42.53,90.9-.27,123.56-29.26,151.61-30.64-.3,8.27-1.13,11.08-6.27,24.78-12.2,32.44-18.73,57.62-22.62,87.21-2.14,16.37-2.45,61.43-.53,76.79,4.34,34.51,8.66,48.53,41.31,133.79,12.84,33.54,22.6,62.24,26.81,78.77,3.46,13.67.71,11.96,9.94,8.85,19.81-6.64,58.54-5.54,91.29,2.62,68.76,17.1,110.12,55.14,122.81,112.96,2.52,11.44,2.52,39.18,0,51.88-3.91,19.75-13.91,44.47-26.9,66.55-16.5,28.03-45.16,58.27-63.14,66.66-7.56,3.51-7.05,1.67-.19,13.2,8.49,14.24,25.32,48.99,43.84,90.53,21.98,49.31,29.05,63.94,37.71,78.21,22.79,37.53,57.97,73.43,97.24,99.23,16.52,10.86,29.23,17.78,53.03,28.89,14.63,6.83,19.65,9.06,24.73,14.14-5.09,5.09-10.09,7.33-24.73,14.17-23.81,11.09-36.52,18.03-53.03,28.87-39.27,25.83-74.45,61.7-97.24,99.25-8.67,14.28-15.73,28.92-37.71,78.23-18.52,41.51-35.35,76.27-43.84,90.53-6.86,11.52-7.38,9.65.19,13.2,17.94,8.33,46.69,38.69,63.14,66.65,13,22.09,23,46.82,26.9,66.55,2.52,12.69,2.52,40.45,0,51.89-11.62,52.85-46.93,89.01-105.48,107.95-30.7,9.93-80.12,17.23-108.63,7.62-9.22-3.11-6.48-4.82-9.94,8.86-4.59,18.01-14.3,46.09-32.26,93.14-26.47,69.4-31.88,87.44-35.87,119.43-1.91,15.4-1.59,60.5.54,76.81,3.89,29.58,10.42,54.76,22.62,87.19,5.14,13.67,5.97,16.52,6.27,24.77-8.28-.3-11.07-1.13-24.78-6.28-32.45-12.19-57.62-18.73-87.21-22.59-16.37-2.17-61.45-2.47-76.79-.53-34.51,4.32-48.53,8.66-133.8,41.29-33.54,12.84-62.25,22.61-78.78,26.81-13.67,3.48-11.96.75-8.85,9.97,6.64,19.79,5.53,58.53-2.61,91.27-17.1,68.71-55.18,110.13-112.96,122.83-11.44,2.52-39.2,2.52-51.89,0-19.71-3.92-44.46-13.92-66.54-26.92-28.03-16.5-58.27-45.15-66.67-63.14-3.57-7.69-1.02-7.29-16.09,1.39-17.02,9.79-43.36,22.5-87.64,42.25-49.38,22.04-63.95,29.07-78.2,37.73-37.52,22.76-73.35,57.89-99.25,97.25-10.82,16.45-17.76,29.18-28.86,52.95-12.78,27.38-13.3,25.96-16.97,22.05h0ZM2003.32,3405.23c4.54-12.47,19.05-38.37,30.31-54.08,18.36-25.69,43.05-52.24,64.48-69.37,28.72-22.99,49.78-34.6,122.37-67.52,73.54-33.36,132.06-60.82,161.37-119.95,14.56-29.37,14.26-46.56,15.08-78.24-14.72,38.67-34.12,69.75-67.29,99.3-32.32,28.77-66.04,47.13-113.2,61.63-68.93,21.18-137.84,48.67-175.94,99.53-23.88,31.89-33.75,72.31-38.57,78.57-1.44,1.85-1.48,1.85-2.91,0-4.8-6.19-14.65-46.62-38.6-78.59-38.17-50.95-107.17-78.39-175.9-99.52-47.16-14.5-80.89-32.86-113.19-61.63-28.85-25.7-52.11-58.86-64.32-91.67l-2.83-7.63c-.07,19.72-.62,30.06,4.38,49.71,27.01,106.4,154.38,133.4,248.23,185.07,42.24,23.26,79.83,57.36,110.56,100.31,11.24,15.71,25.76,41.61,30.3,54.08,2.72,7.49,2.92,7.49,5.63,0h.02ZM2003.4,3293.82c10.09-31.31,36.13-60.5,63.73-81.17,32.05-24,70.91-42.67,130.62-62.82,41.12-13.88,61.37-22.24,89.94-43.58,12.18-9.1,32.66-28.61,41.54-39.58,19.02-23.52,32.28-49.94,37.61-74.89,2.46-11.45,2.46-34.48,0-43.59-14.55-54.13-81.95-75.63-82.4-75.18-1.14,1.13,14.43,35.42-5.2,69.22-8.97,15.45-25.51,27.52-41.41,33.24-6.57,2.36-6.63.96-2.06,7.83,29.22,43.94,19.93,109.42-34.56,130.49-16.49,6.36-21.13,7.19-41.16,7.19-21.52,0-28.27-1.42-47.18-9.89-.74-.34-1.27,3.61-1.66,12.69-1.17,26.74-9.27,46.02-27.6,65.63-22.11,23.7-49.37,35.26-83.12,35.26s-60.99-11.56-83.12-35.26c-18.31-19.61-26.42-38.89-27.58-65.63-.4-9.08-.91-13.03-1.67-12.69-18.9,8.47-25.64,9.89-47.18,9.89-20.01,0-24.65-.82-41.14-7.19-54.87-21.2-63.48-86.88-34.57-130.49,5.79-8.73,5.33-3.31-14.94-13.66-9.65-4.92-22.81-17.56-28.52-27.41-19.66-33.85-4.08-68.08-5.21-69.22-.52-.52-68.2,21.6-82.26,74.68-3.89,14.69-2.72,36.44,3.02,56.5,3.34,11.69,14.32,34.15,22.74,46.56,18.32,26.99,45.47,52.43,74.07,69.42,21.27,12.66,30.71,16.71,69.11,29.66,59.74,20.15,98.58,38.82,130.64,62.82,27.62,20.69,53.6,49.84,63.72,81.17,3.01,9.31,2.81,9.36,5.81,0h.01,0ZM1530.85,3265.24c54.17-5.55,85.64-34.16,131.97-73.84l-7.5-5.64c-39.75-29.92-66.52-69.82-75.94-113.23-2.54-11.69-4.37-30.81-3.77-39.29.67-9.17,2.53-9.1-9.24,2.42-39.05,38.21-96.14,54.55-152.92,47.92-16.68-1.95-15.46-3.44-15.46,3.63,0,6.56,2.62,38.2,4.04,48.77,10.38,77.34,56.56,136.68,128.83,129.26h0ZM2494.03,3265.25c37.19-4.55,66.49-26.94,86.26-65.94,12.27-24.16,17.72-47.05,21.23-89.06,1.69-20.21,1.88-28.29.65-28.29-.49,0-7.05.73-14.63,1.62-56.75,6.63-113.87-9.72-152.91-47.92-11.82-11.56-9.9-11.55-9.24-2.42.6,8.49-1.22,27.6-3.77,39.29-9.41,43.41-36.18,83.31-75.94,113.23l-7.5,5.64c26.26,22.65,50.42,44.81,79.01,58.54,26.42,12.67,53.81,18.14,76.84,15.32h0ZM2020.25,3187.37c40.44-8.25,69.34-50.67,58.64-91.76-1.73-6.61-12.1-30.49-13.26-30.49-.23,0-3.05.91-6.26,2.02-3.23,1.11-11.44,3.22-18.24,4.69-11.83,2.55-13.7,2.65-40.64,2.65s-28.81-.11-40.63-2.65c-6.81-1.47-15.02-3.58-18.24-4.69-3.23-1.11-6.04-2.02-6.26-2.02-1.16,0-11.53,23.87-13.26,30.49-9.05,34.7,10.97,72.74,43.24,87,15.7,6.94,35.74,8.68,54.9,4.75h0ZM1865.73,3087.35c13.75-3.39,22.87-9.42,34.93-21.12,14.03-13.61,13.53-11.44,6.92-15.13-25.61-14.29-52.17-46.41-66.92-74.02l-4.22-7.9c-16.13,5.95-26.54,8.9-37.26,20.55-20.64,22.44-22.01,62.46-2.79,81.07,16.82,16.26,45.28,22.57,69.34,16.55h0ZM2165.13,3088.9c15.57-2.24,29.87-8.8,39.46-18.1,19.25-18.6,17.87-58.63-2.77-81.07-10.72-11.65-21.14-14.6-37.27-20.55-8.05,15.07-14.63,26.65-25.82,40.94-12.25,15.63-32.16,33.65-45.31,40.98-6.56,3.66-7.07,1.5,6.42,14.66,14.79,14.44,23.91,19.5,40.89,22.66,8.5,1.58,15.77,1.73,24.4.47ZM1466.38,3050.81c33.63-4.48,61.6-17.8,84.84-40.43,12.65-12.31,12.94-12.23,1.86-7.11-17.01,7.86-41.75,14.44-65.41,17.38-12.37,1.55-43.18,1.51-56.99-.05-38.45-4.36-64.42-12.9-110.95-36.53-91.39-46.39-162.97-75.68-249.28-35.67-16.88,7.82-27.11,11.88-28.19,11.22-1.41-.87.75-7.1,7.61-21.82,15.46-33.19,20.73-53.08,21.74-82.26,1.94-55.61-21.57-109.31-54.37-173.95-23.61-46.51-32.1-72.29-36.55-110.95-4.55-39.65,1.92-92.15,18.53-125.08,3.1-6.13,2.99-6.48-.9-3.06-7.14,6.26-18.21,19.1-23.79,27.57-28.37,43.13-32.73,92.19-13.96,157.45,5.25,18.23,11.05,34.91,27.66,79.39,28.85,77.26,34.93,99.57,38.19,139.85,4.02,49.77-4.69,107.93-23.57,150.92-.42.97-.18,1.21.79.79,50.11-22.19,118.53-30.06,177.68-20.44,89.03,14.47,196.55,84.6,285.05,72.81h0ZM2578.36,3050.77c32.42-3.79,56.53-10.87,128.21-37.68,77.24-28.9,99.42-34.97,139.85-38.22,50.3-4.05,107.35,4.67,150.92,23.59.97.41,1.21.17.79-.79-22.19-50.12-30.06-118.54-20.45-177.68,18.65-114.74,120.26-241.5,48.77-349.94-5.59-8.47-16.67-21.31-23.78-27.57-10.13-8.9,8.76,11.58,16.65,63.94,2.49,16.55,2.96,47.04.97,64.21-4.44,38.67-12.92,64.44-36.54,110.95-32.8,64.63-56.31,118.32-54.38,173.95,1,29.08,6.31,49.12,21.75,82.26,6.87,14.73,9.03,20.95,7.61,21.82-1.08.66-11.32-3.4-28.21-11.22-87.49-40.52-159.94-9.66-249.26,35.67-46.54,23.63-72.48,32.16-110.95,36.53-13.68,1.55-44.51,1.58-56.99.04-23.52-2.89-48.39-9.49-65.42-17.36-11.07-5.11-10.83-5.22,1.86,7.11,33.25,32.36,77.77,46.34,128.59,40.39h0ZM2014.87,3039.34c87.24-9.77,132.34-80.59,150.55-167.99,6.15-29.5,8.09-25.47-2.06-27.68-4.28-.92-10.31-2.24-13.42-2.94-5.15-1.16-5.88-1.09-8.42.64-1.53,1.03-10.35,5.71-19.61,10.38-22.33,11.26-32.38,16.96-46.2,26.18-70.07,46.76-52.3,85.35-71.5,95.3-3.68,1.9-3.76,1.9-7.44,0-14.97-7.76-8.42-37.3-40.51-70.16-17.55-17.95-38.04-31.58-77.17-51.31-9.26-4.68-18.1-9.35-19.62-10.38-2.53-1.73-3.27-1.79-8.41-.64-3.12.7-9.14,2.02-13.42,2.94-10.15,2.2-8.21-1.85-2.09,27.68,13.68,65.94,44.27,126.43,99.03,153.18,26.2,12.79,53.38,17.81,80.28,14.81h0ZM1496.3,2984.49c41.89-8.04,74.46-26.59,91.41-52.09,31.29-47.09-2.21-114.03-3.26-114.03-2.09,0-10.93,31.09-49.21,44.23-7.08,2.42-9.36,2.73-21.3,2.76-19.86.07-24.39-2.68-40.57-10.16-10.35,64.72-73.98,106.04-136.51,64.6-8.14-5.39-20.44-17.33-27.26-26.48-20.51-27.55-10.01-35.68-20.78-23.88-34.28,37.5-98.39,41.27-141.17,8.32-7.26-5.61-23.06-22.18-27.78-29.14-21.3-31.46-24.77-74.69-8.68-108.23,4.22-8.8,13.45-21.21,20.73-27.86,11.78-10.78,3.72-.23-23.89-20.79-38.57-28.72-53.73-76.16-35.75-111.81,14.39-28.53,41.86-46.85,73.86-51.95-7.49-16.18-10.23-20.74-10.16-40.58.04-11.94.34-14.22,2.78-21.3,13.19-38.34,44.15-47.09,44.21-49.21.04-1.33-64.32-31.95-108.88-6.57-28.18,16.06-48.47,49.6-57.31,94.72-2.45,12.55-2.67,15.58-2.71,39.35-.08,28.05.8,36.03,6.37,58.79,5.02,20.42,10.54,34.37,26.71,67.56,31.94,65.51,53.18,117.69,51.25,179.72-1.99,64.02-30.32,76.72-9.71,66.53,41.7-20.61,97.37-16.55,143.99-3.03,29.13,8.45,52.02,17.85,97.92,40.25,40.78,19.87,60.47,26.72,89.38,31.08,15.3,2.32,16.37,2.37,40.45,2.1,19.29-.23,24.13-.61,35.89-2.87h0ZM2583.43,2984.96c30.36-5.39,46.75-11.19,86.96-30.78,52.03-25.37,87.96-41,138.24-49.26,15.72-2.58,52.53-2.57,66.41.03,42.75,8.03,50.05,24.99,41.56,7.74-4.66-9.47-9.7-25.16-11.96-37.34-2.6-13.86-2.61-50.66-.03-66.39,15.47-94.42,60.37-142.27,75.94-205.81,5.58-22.74,6.46-30.74,6.39-58.79-.05-23.77-.27-26.81-2.73-39.35-8.82-45.11-29.11-78.65-57.29-94.7-44.6-25.41-108.88,5.22-108.88,6.55,0,2.11,31.01,10.84,44.21,49.21,2.44,7.08,2.73,9.37,2.77,21.3.06,19.89-2.7,24.37-10.16,40.58,64.17,10.29,106.27,73.33,64.58,136.52-5.37,8.12-17.32,20.42-26.47,27.24-27.52,20.52-35.68,10.01-23.9,20.79,37.5,34.27,41.29,98.39,8.33,141.16-5.6,7.27-22.17,23.06-29.13,27.79-31.45,21.3-74.69,24.76-108.24,8.68-8.8-4.23-21.21-13.45-27.86-20.72-10.76-11.8-.25-3.66-20.79,23.88-28.72,38.57-76.14,53.72-111.8,35.74-28.54-14.39-46.84-41.87-51.95-73.86-16.2,7.47-20.73,10.24-40.57,10.16-11.95-.03-14.24-.34-21.31-2.76-38.29-13.15-47.12-44.19-49.2-44.21-1.32-.01-31.98,64.25-6.57,108.85,16.11,28.29,50.82,49.21,94.72,57.1,18.9,3.4,17.92,3.34,43.79,3,18.21-.23,25.84-.75,34.93-2.36v-.02ZM1815.76,2948.48l10.98-1.7c-10.01-30.72-17.1-55.93-16.35-84.43.19-7.29.28-13.26.23-13.26-2.55.02-30.33,6.42-34.31,7.91-37.89,14.17-37.44,58.31-15.2,79.1,13.64,12.74,29.29,16.29,54.65,12.39ZM2215.7,2948.74c46.65-9.91,54.68-74.67,8.99-91.74-3.99-1.48-31.79-7.89-34.33-7.91-.06,0,.06,5.97.26,13.26.75,28.46-6.34,53.63-16.33,84.36,14.88,2.5,28.19,4.83,41.41,2.03h0ZM2005.38,2899.61c18.91-34.17,51.56-53.47,98.31-72.1l-10.55-5.05c-36.42-17.41-72.46-52.11-89.33-89.86-3.67-8.21-2.96-8.26-6.66,0-16.54,36.93-51.51,71.78-89.32,89.86l-10.55,5.05c46.79,18.6,79.39,37.94,98.33,72.1,5.69,10.26,4.08,10.25,9.77,0h0ZM1407.4,2897.16c6.14-3.02,9.82-5.79,16.39-12.35,13.42-13.42,19.79-27.77,19.79-44.63,0-10.12-1.78-17.09-7.46-29.32-3.66-7.89-4.74-9.43-6.18-8.88-9.15,3.55-31.61,8.65-45.8,10.4-22.42,2.77-46.61.43-66.42-4.73,0,13.03-.64,27.74,1.95,37.84,5.39,21.07,22.41,40.84,43.29,50.32,10.38,4.69,15.7,5.79,26.61,5.5,9.27-.24,10.42-.5,17.84-4.16h0ZM2633.45,2897.74c23.33-9.11,42.1-29.58,47.88-52.24,2.59-10.15,1.96-24.8,1.96-37.84-19.82,5.16-44.01,7.49-66.42,4.73-14.19-1.76-36.68-6.85-45.82-10.4-1.44-.56-2.5.99-6.16,8.88-5.68,12.23-7.45,19.21-7.45,29.32,0,26.11,19.34,51.18,42,59.59,8.58,3.19,24.25,1.79,34.02-2.03ZM1239.92,2862.97c20.11-6.42,34.98-18.85,44-36.77,3.51-6.95,10.67-26.53,9.86-26.95-.19-.11-3.69-1.93-7.77-4.06-29.96-15.63-63.4-48.52-79.85-79.87-2.15-4.08-3.96-7.58-4.08-7.77-.42-.81-19.99,6.36-26.95,9.86-18.12,9.11-30.5,24.07-36.94,44.53-2.02,6.46-2.31,9.36-2.29,22.76.03,14.18.24,15.97,2.76,23.21,9.65,27.58,34.45,50.38,61.62,56.64,9.19,2.11,30.79,1.28,39.65-1.56ZM2807.56,2862.58c24.78-8.46,46.01-29.68,54.76-54.69,2.53-7.24,2.74-9.03,2.76-23.21.03-13.41-.25-16.31-2.28-22.76-6.45-20.46-18.83-35.42-36.93-44.53-6.95-3.5-26.53-10.66-26.97-9.86-.1.19-1.93,3.69-4.06,7.77-16.01,30.68-49.29,63.96-79.85,79.87-4.08,2.13-7.6,3.97-7.81,4.08-.7.39,6.83,21.19,9.72,26.92,9.89,19.6,27.63,33.16,50.12,38.36,9.38,2.17,30.37,1.51,40.53-1.95h0ZM1696.59,2844.45c22.08-9.03,46.74-15.03,110.66-26.99,61.23-11.45,72.92-14.55,93.65-24.87,47.03-23.43,84.13-73.09,89.22-125.21.8-8.24,1.9-16.79,2.44-18.97,1.74-7.22,1.18-9.9-4.06-19.59-6.91-12.82-18.31-27.59-28.33-38.78l-.69,9.33c-2.99,39.39-22.31,84.96-49.02,115.54-24.21,27.71-58.53,47.52-95.74,40.52-11.08-2.1-11.39-2.01-30.54,7.67-36.93,18.68-76.23,55.65-106.12,89.13l18.53-7.79h0ZM2316.8,2845.37c-7.8-8.72-35.44-35.85-44.29-43.45-21.37-18.34-37.7-29.73-55.5-38.71-19.4-9.81-19.66-9.87-30.74-7.78-37.22,7.01-71.54-12.8-95.75-40.52-26.7-30.58-46.05-76.15-49.02-115.54l-.7-9.33c-10.09,11.29-21.33,25.81-28.32,38.78-5.25,9.69-5.8,12.37-4.05,19.59.53,2.18,1.61,10.73,2.43,18.97,5.13,52.09,42.12,101.75,89.23,125.21,20.72,10.32,32.41,13.42,93.65,24.87,71.82,13.42,97.04,20.02,123.27,32.22,7.1,3.31,7.28,4.13-.22-4.32h0ZM1519.16,2830.8c14.63-3.1,28.09-13.79,35.01-27.82,3.72-7.53,3.86-8.11,3.79-17.74-.1-13.05-2.3-18.86-13.89-36.55-4.86-7.44-9.07-13.53-9.34-13.53s-2.49,2.48-4.96,5.52c-10.11,12.51-37.43,32.45-61.65,45.01l-13.58,7.05c14.51,19.99,26.66,34.92,47.47,38.52,6.81,1.18,9.83,1.1,17.14-.45h0ZM2506.37,2829.28c17.83-6.13,27.72-19.68,40.06-36.57l-13.58-7.03c-24.22-12.56-51.52-32.5-61.63-45.01-2.46-3.03-4.7-5.52-4.96-5.52-1.34.01-18.18,27.37-20.5,33.3-2.25,5.73-2.68,8.41-2.72,16.78-.07,9.63.06,10.21,3.77,17.74,11.29,22.84,36.85,34.13,59.57,26.3ZM1627.43,2785.02c-1.11-42.37-5.4-71.37-14.28-96.45-5.67-15.99-6.4-17.19-13.71-21.93-36.74-23.84-49.69-75.02-33.98-134.23,7.63-28.79,24.77-61.8,41.36-79.73,7.42-8.03,8.01-7.69-9.88-5.46-16.67,2.06-22.85,3.28-33.72,6.59-11.99,3.67-8.29.98-15.27,10.94-3.09,4.41-8.88,11.82-12.89,16.5-13.45,15.7-26.06,44.95-30.44,70.57-4.42,25.89-1.23,59.32,8.03,84.22,7.15,19.21,14.56,31.59,49.16,82.02,41.78,60.9,49.58,74.91,64.59,112.5l1.02-45.53h0ZM2379.5,2818.38c22.8-56.03,81.57-125.78,101.59-165.49,16.13-32,21.31-72.14,13.92-107.69-4.86-23.34-16.87-49.78-29-63.89-4.05-4.7-9.89-12.16-12.97-16.56-6.95-9.94-3.31-7.29-15.26-10.94-10.89-3.32-17.07-4.53-33.73-6.59-17.9-2.22-17.31-2.57-9.87,5.46,30.2,32.62,52.28,95.41,47.37,141-3.58,33.18-17.32,58.24-39.98,72.96-7.31,4.74-8.06,5.95-13.73,21.93-8.25,23.34-12.43,49.74-14.3,90.44-.58,12.5.24,51.97,1.05,51.08.16-.17,2.37-5.43,4.91-11.71h0ZM1687.98,2791.62c28.19-27.05,54.27-42.65,85.63-55.78-14.7-15.29-22.86-25.69-28.43-51.24-2.35-10.82-2.44-47.02-.12-60.95,1.96-11.82,2.96-11.83-4.92-1.21-27.48,37.01-59.29,57.73-89.69,58.43-11.18.25-9.67-1.11-5.27,9.81,16.28,40.32,19.16,85.33,15.33,130.8l27.47-29.85h0ZM2339.3,2806.38c-5.61-70.36,19.93-122.94,19.93-124.73,0-.32-3.91-.67-8.7-.78-55.51-1.23-95.05-67.63-95.94-66.32-.08.1.53,4.2,1.35,9.1,2.31,13.94,2.23,50.13-.13,60.95-5.6,25.61-13.7,35.91-28.42,51.24l9.01,3.77c32.68,13.71,70.71,42.43,96.06,72.6,9.83,11.67,8.33,12.57,6.83-5.84h0ZM1392.93,2777.23c37.32-5.29,71.68-20.19,106.63-43.03l24.03-15.9c-.13-.31-3.37-5.54-7.19-11.62-6.72-10.68-7.08-11.07-11.39-12.05-2.45-.54-14.28-4.17-26.25-8.06-37.6-12.23-57.38-16.15-81.77-16.21-48.81-.13-56.18,19.53-75.49,20.95-6.18.45-6.77.31-9.29-2.21-5.78-5.78-.84-17.57,4.44-27.51,11.37-21.45,14.36-33.46,14.3-57.26-.06-24.39-3.97-44.18-16.21-81.77-3.89-11.97-7.51-23.79-8.06-26.24-.97-4.31-1.36-4.68-12.05-11.39-13.16-8.26-11.5-8.65-14.03-4.23-1.01,1.78-7.12,11.29-13.56,21.15-41.4,63.32-54.59,126.26-37.02,176.81,17.57,50.52,62.07,89,113.44,98.1,13,2.3,35.21,2.52,49.45.49ZM2656.67,2776.81c45.55-7.8,86.02-38.41,106.83-80.82,10.73-21.82,14.92-39.81,14.89-63.77-.04-41.82-14.77-85-44.45-130.39l-15.98-24.11c-.31.13-5.52,3.37-11.6,7.19-10.7,6.71-11.09,7.08-12.05,11.39-.55,2.45-4.19,14.28-8.09,26.24-12.22,37.6-16.14,57.38-16.2,81.77-.13,48.8,19.59,56.24,20.97,75.49.43,6.18.29,6.77-2.21,9.29-5.77,5.78-17.59.83-27.51-4.44-21.45-11.37-33.47-14.37-57.26-14.3-24.38.06-44.17,3.98-81.77,16.21-12,3.89-23.8,7.52-26.25,8.06-4.32.97-4.69,1.36-11.4,12.05-8.3,13.23-8.66,11.48-4.21,14.02,1.77,1.02,11.29,7.11,21.15,13.56,36.01,23.55,71.41,37.93,105.72,42.94,14.17,2.06,36.13,1.88,49.42-.39h0ZM1843.66,2721.76c21.69-5.11,42.02-21.81,60.9-50,23.98-35.78,27.15-64.04,36.16-102.61l-31.87-32.21c-43.47-43.94-56.35-59.84-68.46-84.48-2.89-5.87-5.45-10.33-5.71-9.92-1.27,2.07-29.94,82.28-34.79,97.39-9.31,28.86-16.92,59.94-20.52,83.73-.8,5.31-1.33,17.14-1.33,29.24,0,18.09.24,21.23,2.26,28.6,4.9,17.95,13.45,28.51,29.7,36.71,9.52,4.79,22.59,6.18,33.67,3.56h0ZM2184.94,2720.58c19.54-6.67,30.62-20.26,35.74-38.97,2.05-7.53,2.29-10.56,2.29-28.73,0-42.51-9.25-80.16-41.8-169.95-7.9-21.81-14.62-40.03-14.91-40.5-.29-.47-1.86,2.16-3.47,5.84-13.74,31.27-38.59,56.2-70.54,88.42l-31.69,31.97c8.75,46.67,16.2,73.75,35.87,103.1,18.66,27.86,38.79,44.52,60.45,50.02,7.37,1.87,20.75,1.3,28.05-1.19h0ZM1192.24,2678.21c-5.66-21.68-5.81-52.2-.37-78.93,6.83-33.62,12.98-27.4-1.42-34.08-12.22-5.68-19.21-7.45-29.31-7.45-16.85,0-31.21,6.37-44.64,19.79-6.51,6.53-9.35,10.28-12.38,16.39q-3.92,7.93-3.89,19.82c.03,11.06.26,12.45,3.27,20.02,9.29,23.31,29.57,41.98,51.92,47.86,9.49,2.49,25.52,1.94,38.22,1.98l-1.4-5.39h0ZM2845.19,2681.64c22.63-5.77,42.94-24.37,52.31-47.89,3.01-7.57,3.24-8.95,3.27-20.02q.03-11.89-3.9-19.82c-3.02-6.11-5.86-9.86-12.39-16.39-13.42-13.42-27.76-19.79-44.62-19.79-10.12,0-17.08,1.78-29.31,7.45-7.88,3.66-9.44,4.74-8.87,6.18,3.53,9.15,8.63,31.61,10.39,45.81,2.77,22.37.45,46.65-4.71,66.42,12.99,0,27.8.64,37.83-1.95h0ZM1486.1,2650.53c-15.32-39.3-14.95-88.15-1.66-127.07l3.42-10.02-10.02,3.42c-39.02,13.32-87.61,13.64-127.06-1.67-9.65-3.75-8.43-3.99-3.26,7.94,17.58,40.57,25.06,79.71,10.95,119.7,63.91-22.58,121.01,14.13,129.33,14.9.68.05,0-2.86-1.7-7.21h0ZM2528.68,2651.51c40.24-16.47,77.01-21.65,113.84-8.67-22.78-64.57,15-123.19,15-129.74l-23.92,7.35c-37.19,9.62-75.44,8.37-110.47-3.58l-10-3.42,3.41,10.02c13.35,39.13,13.65,87.59-1.68,127.16-3.67,9.46-4.81,8.54,13.82.88h0ZM1659.1,2644.85c5.83-1.6,17.07-7.42,23.3-12.06,46.83-34.92,85.07-120.41,123.66-203.59-33.17,12.92-53.23,15.56-124.33,15.57h-40.79c-25.61,39.59-40.26,61.16-48.44,104.55-2.59,13.78-2.32,41.08.52,51.53,6.27,23.16,19.29,37.47,39.32,43.24,6.83,1.97,20.87,2.37,26.76.76h0ZM2367.51,2644.37c20.36-5.26,34.08-20,40.47-43.52,2.84-10.45,3.11-37.76.51-51.53-8.2-43.48-22.81-65.05-48.42-104.55-62.69,0-119.14,2.26-158.03-12.81l-7.07-2.75c32.06,69.13,85.82,196.51,145.89,215.33,5.66,1.78,19.45,1.69,26.66-.17h0ZM2006.2,2597.58c20.89-42.55,87.71-97.5,116.08-140.81,12.11-18.48,16.95-31.69,17.67-48.16.94-21.18-5.91-39.52-20.01-53.52-7.01-6.95-23.53-18.48-24.75-17.24-.2.23.06,2.64.62,5.36,1.62,7.97,1.34,34.4-.49,45.1-8.36,48.96-37.29,89.48-72.63,101.71-11.32,3.91-33.07,3.91-44.39,0-35.36-12.23-64.3-52.75-72.65-101.71-1.82-10.7-2.1-37.12-.47-45.1.56-2.72.84-5.13.6-5.36-1.22-1.23-17.72,10.29-24.73,17.24-14.08,14-20.94,32.34-20.02,53.52,1.64,37.46,31.28,69.16,75.53,115.94,36.89,39,48.96,54.13,58.23,73.03,2.87,5.84,5.44,10.61,5.71,10.61s2.84-4.77,5.7-10.61h0ZM919.34,2602.48c0-.47-.72-7.05-1.61-14.61-6.63-56.79,9.71-113.85,47.91-152.92,11.49-11.75,11.62-9.91,2.42-9.24-8.49.61-27.6-1.23-39.29-3.76-43.36-9.42-83.31-36.19-113.14-75.84l-5.57-7.41c-34.41,38.09-53.73,63.25-64.66,92.69-16.14,43.52-12.59,81.76,10.42,112.33,18.84,25,53.32,44.76,91.73,52.58,21.09,4.31,71.79,8.67,71.79,6.18h0ZM3104.95,2602.29c20.7-1.71,37.92-3.83,48.55-6,38.34-7.79,72.85-27.58,91.67-52.56,21.94-29.11,26.17-64.34,12.74-105.89-12.54-38.79-37.48-64.81-66.8-99.34l-5.67,7.5c-29.92,39.76-69.82,66.51-113.2,75.95-11.71,2.53-30.81,4.37-39.31,3.76-9.23-.68-9.05-2.5,2.44,9.24,38.24,39.06,54.48,96.13,47.91,152.92-.87,7.56-1.6,14.14-1.6,14.61,0,1.14,7.76,1.08,23.29-.19h0ZM1215.62,2533.23c12.57-24.26,32.5-51.56,45.03-61.69,3.02-2.45,5.52-4.68,5.52-4.95s-6.1-4.48-13.54-9.34c-17.68-11.58-23.49-13.79-36.55-13.89-9.63-.06-10.21.07-17.74,3.79-29.85,14.74-40.96,53.36-11.24,82.56,3.86,3.79,19.32,16.2,21.27,17.07.1.03,3.36-6.07,7.25-13.55h0ZM2815.8,2527.66c27.86-29.78,15.32-66.47-13.14-80.52-7.54-3.72-8.13-3.85-17.74-3.79-8.38.05-11.06.48-16.78,2.72-5.94,2.32-33.3,19.17-33.31,20.5,0,.27,2.48,2.5,5.52,4.95,12.52,10.11,32.46,37.44,45,61.65l7.05,13.56c7.97-5.84,16.94-12.17,23.4-19.08h0ZM1447.6,2496.74c25.76-3.55,55.73-16.15,72.47-30.49,4.67-4.02,12.1-9.81,16.5-12.89,9.98-6.99,7.27-3.27,10.94-15.27,3.33-10.87,4.54-17.05,6.6-33.71,2.22-17.9,2.57-17.31-5.46-9.89-17.02,15.76-48.33,32.38-76.09,40.37-60.06,17.3-113.55,4.5-137.87-32.98-4.75-7.3-5.96-8.05-21.94-13.71-39.22-13.9-94.4-16.31-141.98-13.25,37.65,15.03,51.53,22.76,112.49,64.58,50.44,34.59,62.82,42.02,82.03,49.16,25.52,9.5,52.66,12.16,82.32,8.08h0ZM2590.14,2498.26c49.9-3.77,74.09-22.06,127.58-58.76,60.91-41.79,74.91-49.58,112.5-64.58-47.68-3.07-102.7-.63-142.13,13.3-15.81,5.59-17.04,6.37-21.78,13.67-24.33,37.48-77.82,50.27-137.86,32.98-27.76-7.99-59.07-24.61-76.1-40.37-8.02-7.42-7.68-8.02-5.48,9.89,2.06,16.66,3.27,22.84,6.62,33.71,3.67,12,.93,8.27,10.93,15.27,17.26,12.11,17.35,16.5,39.01,27.16,21.76,10.73,39.69,15.86,61.63,17.68,13.89,1.14,9.17,1.27,25.08.05h0ZM2007.7,2455.68c7.99-2.47,19.63-9.97,27.18-17.53,23.83-23.85,35-54.93,35-97.32v-12.71c-26.1-8.61-47.9-15.22-69.38-25.34-21.55,10.14-43.21,16.71-69.37,25.34v12.71c0,42.39,11.19,73.47,34.99,97.32,7.38,7.38,19.12,15.03,26.84,17.49,7.6,2.42,7.1,2.42,14.74.05ZM1576.97,2428.5c19.62-7.97,42-10.56,107.46-12.45,53.77-1.53,103.03-2.76,130.64-32.31,11.79-12.61,19.95-32.36,19.92-48.17,0-8.39-2.99-22.08-5.95-29.7l-4.7,6.27c-19.65,26.27-53.5,47.48-89.44,56.05-5.7,1.35-11.58,1.77-25.28,1.77-20.3,0-27.69-1.5-40.57-8.19-9.65-5.01-24.5-19.87-29.52-29.51-6.69-12.89-8.19-20.28-8.19-40.59,0-18.94.75-24,6.08-40.63,8.66-27.05,29.01-57.06,51.75-74.08l6.27-4.7c-37.75-14.82-79.75.65-96.48,41.05-22.67,54.77-5.58,160.38-26.15,211.02-3.35,8.24-4.06,7.51,4.16,4.16h0ZM2430.58,2430.58c0-.18-1.08-2.98-2.4-6.24-20.61-50.87-3.46-156.19-26.15-211.02-16.17-39.07-57.27-56.44-96.48-41.05l6.28,4.7c26.28,19.64,47.48,53.5,56.04,89.43,1.37,5.71,1.77,11.58,1.77,25.27,0,25.92-3.65,39.55-21.22,57.02-10.65,10.59-18.24,15.19-31.34,18.98-6.92,2.01-10.05,2.29-25.73,2.29-18.94,0-24-.75-40.63-6.08-27-8.63-57.18-29.15-74.07-51.74l-4.7-6.27c-3,7.74-5.93,21.32-5.95,29.99-.03,15.45,8.3,35.45,19.99,47.97,27.58,29.53,77.32,30.7,130.73,32.22,65.03,1.85,90.04,4.8,107.92,12.74,4.43,1.95,5.95,2.42,5.95,1.79h0ZM1442.61,2410.04c45.78-5.67,72.09-22.52,113.94-49.7,0-62.34-2.33-119.05,12.81-158l2.76-7.08c-89.85,41.67-185.61,84.69-211.12,136.05-4.58,9.24-5.61,13.38-5.63,22.65,0,24.89,14.79,44.64,39.48,52.65,12.99,4.2,30.98,5.52,47.75,3.43h.01ZM2600.54,2408.2c28.55-7.45,45.1-27.37,45.09-54.25,0-9.28-1.04-13.41-5.64-22.65-27.46-55.18-143.26-104.67-211.08-136.02,12.92,33.26,15.54,53.12,15.55,123.81v41.27c41.24,26.82,67.23,43.43,112.6,49.67,11.22,1.54,34.29.58,43.47-1.82h.01ZM977.61,2394.28c-32.8-12.21-65.96-35.47-91.65-64.33-28.73-32.25-47.32-66.4-61.65-113.2-21.03-68.68-48.68-137.88-99.51-175.94-31.89-23.88-72.36-33.76-78.57-38.55-1.85-1.43-1.85-1.47,0-2.91,6.18-4.79,46.69-14.7,78.57-38.57,50.85-38.07,78.47-107.24,99.51-175.93,14.33-46.77,32.92-80.92,61.65-113.2,25.7-28.84,58.85-52.12,91.65-64.31l7.63-2.84c-33.66-.11-55.75,1.79-87.1,19.62-75.61,42.99-104.1,153.83-147.67,232.98-23.27,42.25-57.36,79.84-100.32,110.57-15.71,11.25-41.61,25.75-54.08,30.31-7.47,2.73-7.52,2.9,0,5.65,12.47,4.54,38.37,19.07,54.08,30.31,25.7,18.37,52.25,43.05,69.37,64.48,23.05,28.82,34.38,49.34,67.97,123.38,34.04,74.97,67.98,150.63,148.33,171,19.72,5,28.76,4.21,49.42,4.31l-7.63-2.83h0ZM3048.56,2396.13c130.58-18.17,152.39-178.89,215.94-274.42,25.85-38.86,64.44-75.59,104.83-99.8,39.27-23.55,48.81-19.1,35.6-23.92-12.44-4.53-38.33-19.06-54.31-30.47-25.34-18.1-52.06-42.94-69.17-64.32-22.96-28.72-34.59-49.78-67.51-122.38-38.78-85.52-72.13-152.56-148.5-171.93-19.62-4.97-29.99-4.44-49.68-4.37l7.61,2.84c32.82,12.19,65.98,35.47,91.68,64.31,28.73,32.27,47.32,66.42,61.64,113.2,20.95,68.46,48.63,137.81,99.53,175.93,31.89,23.88,72.44,33.8,78.56,38.57,1.85,1.44,1.85,1.48,0,2.91-6.15,4.77-46.55,14.61-78.56,38.58-50.87,38.09-78.58,107.48-99.53,175.92-14.32,46.79-32.91,80.95-61.64,113.2-25.7,28.86-58.85,52.12-91.68,64.33l-7.61,2.83,32.8-.97h0ZM1053.62,2367.03c53.15-14.25,75.17-81.73,74.67-82.27-1.13-1.18-35.39,14.43-69.22-5.22-15.46-8.98-27.51-25.5-33.24-41.39-2.36-6.56-.96-6.64-7.83-2.07-43.96,29.24-109.43,19.93-130.48-34.56-6.37-16.49-7.19-21.13-7.19-41.16,0-21.52,1.41-28.27,9.88-47.18.33-.76-3.62-1.27-12.7-1.67-26.75-1.17-46.01-9.26-65.63-27.59-23.7-22.11-35.26-49.38-35.26-83.12s11.56-60.98,35.26-83.12c19.62-18.3,38.88-26.42,65.63-27.57,9.08-.41,13.03-.92,12.7-1.69-8.47-18.89-9.88-25.64-9.88-47.17,0-20.02.82-24.68,7.19-41.15,21.27-55.02,87.13-63.38,130.48-34.58,8.75,5.82,3.28,5.38,13.66-14.93,4.93-9.64,17.57-22.8,27.41-28.51,33.84-19.65,68.09-4.08,69.22-5.22.45-.45-21.13-67.92-75.18-82.41-9.11-2.44-32.14-2.44-43.59.01-59.06,12.63-110.75,62.91-138.19,117.47-5.82,11.59-10.32,23.24-19.51,50.59-17.1,50.92-35.85,95.32-64.07,132.87-20.16,26.82-49.43,52.57-80.28,62.5-9.28,2.99-9.35,2.81,0,5.83,30.84,9.95,60.11,35.67,80.28,62.48,28.18,37.48,46.99,82.05,64.07,132.87,12.4,36.91,16.69,46.92,29.3,68.12,28.46,47.88,78.26,91.06,133.34,100.88,9.53,1.7,31.07,1.11,39.15-1.05ZM2992.47,2366.95c58.36-12.62,109.9-63.14,137.18-117.26,5.84-11.58,10.18-22.85,19.87-51.62,20.15-59.72,38.85-98.57,62.85-130.63,11.15-14.89,29.73-33.87,42.23-43.15,10.2-7.56,28.42-17.19,38.91-20.58,9.37-3.01,9.33-2.8,0-5.81-31.32-10.11-60.47-36.1-81.14-63.72-24-32.05-42.7-70.91-62.85-130.63-13.88-41.19-22.2-61.27-43.58-89.93-9.08-12.18-28.61-32.67-39.58-41.54-23.61-19.1-49.8-32.26-74.86-37.61-11.46-2.45-34.51-2.45-43.62-.01-54.14,14.51-75.61,81.98-75.08,82.5.94.93,35.5-14.46,69.14,5.11,15.46,8.99,27.51,25.5,33.24,41.41,2.37,6.57.93,6.63,7.83,2.06,44.06-29.22,109.41-19.91,130.48,34.57,6.37,16.48,7.18,21.14,7.18,41.16,0,21.53-1.4,28.25-9.87,47.17-.35.77,3.6,1.27,12.7,1.69,26.73,1.15,46.01,9.25,65.63,27.57,23.69,22.14,35.24,49.38,35.24,83.12s-11.55,60.99-35.24,83.12c-19.62,18.32-38.89,26.42-65.63,27.59-9.1.4-13.04.92-12.7,1.67,8.47,18.91,9.87,25.64,9.87,47.18,0,20-.81,24.67-7.18,41.15-21.25,54.95-86.99,63.42-130.48,34.57-8.74-5.8-3.32-5.32-13.66,14.95-4.92,9.63-17.57,22.79-27.41,28.51-33.66,19.55-68.2,4.19-69.14,5.11-.51.49,22.09,72.01,79.55,83.39,8.72,1.73,29.78,1.15,40.13-1.09h0ZM1320.49,2350.87c.96-55.68,67.75-94.92,66.27-95.96-.1-.09-4.19.53-9.09,1.34-13.94,2.32-50.13,2.23-60.96-.12-25.53-5.58-35.97-13.76-51.27-28.46-15.54,39.21-41.53,75.05-75.39,104.3l-10.2,8.82c19.37-1.61,48.63-2.32,66.51-.19,22.59,2.7,49.32,9.21,64.91,15.85,9.43,4.01,9.07,5.35,9.22-5.57h0ZM2690.36,2356.13c40.55-16.34,85.14-19.13,130.81-15.35-39.6-34.13-66.55-65.22-85.61-113.12-15.32,14.71-25.7,22.87-51.29,28.46-10.81,2.36-47,2.44-60.94.12-12.08-2-12.35-3.61,1.8,7.35,29.81,23.1,54.6,53.3,55.46,87.27.28,11.14-1.18,9.67,9.77,5.26h0ZM1727.48,2333.75c41.42-4.69,61.92-24.69,90.66-52.37-12.79-25.22-22.86-43.71-31.08-67.13-23.41-8.22-41.94-18.32-67.15-31.11-14.48,15.14-23.68,23.74-33.29,38.42-17.64,26.97-27.06,67.7-13.02,95.68,2.84,5.68,4.58,7.46,9.83,10.12,12.17,6.18,26.97,8.33,44.05,6.39ZM2305.71,2331.73c8.1-2.25,15.59-5.79,17.97-8.51,8.23-9.37,11.72-31.39,9.82-48.53-3.79-34.23-17.39-54.96-42.2-80.88l-10.21-10.67c-25.18,12.78-43.78,22.9-67.15,31.11-8.29,23.53-18.27,41.81-31.1,67.13,15.11,14.49,23.76,23.71,38.41,33.3,26.47,17.34,59.43,23.98,84.46,17.05h0ZM1178.03,2295.45c30.24-30.78,47.55-53.29,60.07-78.12,9.8-19.41,9.88-19.67,7.78-30.76-7.01-37.24,12.79-71.47,40.51-95.77,30.37-26.63,76.76-46.24,115.88-48.99l9.44-.65c-15.87-13.23-42.74-33.43-51.11-33.43l-30.02,3.84c-14.18,1.17-30.62,6.3-48.05,15.06-34.12,17.13-63.78,48.39-78.34,83.12-6.88,16.41-10.66,32.1-20.74,86.28-13.73,73.76-18.58,91.12-34.38,127.21l28.95-27.79h0ZM2850.14,2319.16c-14.08-32.13-19.34-52.05-33.01-125.11-11.43-61.22-14.54-72.92-24.86-93.64-15.41-30.93-42.77-58.19-73.81-73.76-33.71-16.92-41.61-12.82-67.47-17.45-4.4-.79-9.15-1.46-10.6-1.46-8.37,0-35.24,20.2-51.1,33.43l9.41.65c39.14,2.75,85.51,22.36,115.91,48.99,27.72,24.3,47.51,58.53,40.5,95.77-2.09,11.09-2.02,11.35,7.77,30.76,13.63,26.97,34.62,53.4,69.46,87.45,10.17,9.96,18.71,18.09,18.97,18.09s-.26-1.67-1.17-3.72h0ZM1890,2307.3c21.77-10.84,60.19-20.79,79.76-29.04-19.96-27.14-26.23-47.4-26.16-82.74.04-17.62.32-21.18,2.68-32.35,5.15-24.24,12.93-43.62,25.55-63.68,5.93-9.4,6.1-9.87,4.3-11.26-6.13-4.73-15.39-7.35-22.74-8.37l-2.28,10.28c-13.33,60.01-56.78,116-116.23,127.17-4.48.83-8.3,1.68-8.5,1.88-.19.2,6.92,15.02,15.81,32.94,19.51,39.39,21.04,44.4,25.8,68.56l22.01-13.4h0ZM2136.34,2305.21c2.97-12.51,7.71-23.63,23.9-56.02,8.13-16.28,14.61-29.77,14.4-29.97-.2-.21-4.05-1.08-8.54-1.91-59.43-11.15-102.86-67.19-116.21-127.17l-2.29-10.28c-7.34,1.02-16.61,3.64-22.74,8.37-1.8,1.39-1.63,1.86,4.31,11.26,12.63,20.06,20.39,39.44,25.52,63.68,2.37,11.16,2.67,14.73,2.7,32.35.07,35.36-6.23,55.57-26.16,82.74,29.93,12.57,66.6,18.55,95.11,37.93l6.44,4.37,3.55-15.36h0ZM2005.42,2254.74c5.7-6.55,12.48-20.72,15.55-32.44,2.31-8.78,2.61-11.89,2.68-27.26.12-19.83-1.34-29.53-6.96-46.95-3.19-9.84-11.14-27.03-14.73-31.75-1.44-1.9-1.47-1.9-2.88,0-3.44,4.65-10.58,19.6-13.83,28.94-6.11,17.66-8.04,29.83-7.92,49.76.13,19.93,2.06,30.75,9.77,46.08,4.19,8.35,11.5,18.35,13.4,18.35.45,0,2.68-2.12,4.92-4.72h0ZM1117.94,2252.63c11.53-4.04,21.42-14.4,26.38-27.63,1.48-3.98,7.88-31.78,7.9-34.32,0-.05-5.97.05-13.27.24-28.53.76-53.7-6.36-84.43-16.34-4.23,27.36-6.89,46.8,10.57,65.48,6.65,7.12,14.9,11.93,23.97,14,8.15,1.87,21.4,1.21,28.88-1.42h0ZM2911.48,2254.04c9.43-1.99,17.58-6.66,24.42-13.98,17.46-18.66,14.8-38.15,10.58-65.48-30.87,10.02-55.74,17.06-84.44,16.34-7.3-.17-13.27-.29-13.27-.24,0,2.55,6.43,30.34,7.92,34.32,8.74,23.33,29.56,34.37,54.79,29.04h0ZM1369.74,2222.76c24.29-2.71,59.32-10.85,91.65-21.3,21.09-6.82,96.27-33.97,97.57-35.23.59-.58.47-.92-.28-.92-2.52,0-19.9-9.32-30.38-16.33-27.38-18.31-62.88-55.49-96.14-88.38-38.52,8.52-68.16,13.08-102.6,36.16-46.49,31.13-62.5,67.9-43.5,99.84,9.69,16.29,25.49,24.05,44.04,26.5,6.3.84,31.14.64,39.64-.32ZM2681.81,2220.86c15.2-4.19,25.81-11.93,33.14-24.27,19-31.94,2.97-68.71-43.5-99.84-34.47-23.09-64.1-27.64-102.61-36.16-33.21,32.87-68.8,70.14-96.13,88.38-10.51,7.02-27.86,16.33-30.38,16.33-.78,0-.87.34-.3.92,1.35,1.27,76.71,28.48,97.57,35.2,30.09,9.71,63.53,17.8,83.74,20.26,15.97,1.97,11.28,1.97,32.21,1.64,15.16-.25,19.69-.68,26.27-2.48h0ZM985.25,2216.36c14.46-3.71,29.13-14.16,36.06-25.69,3.81-6.35,7.85-17.79,10.8-25.8l-7.9-4.22c-31.03-16.59-61.11-43.78-74.01-66.93-1.44-2.58-2.87-4.7-3.19-4.71-1.64-.03-22.76,23.06-25.54,27.92-19.18,33.69-8.11,82.08,20.05,95.96,11.76,5.8,29.19,7.17,43.73,3.45h0ZM3045.4,2217.36c19.35-3.45,33.1-16.4,39.77-37.45,6.67-21.16,5.45-40.15-3.82-59.2-3.44-7.06-5.91-10.28-15.41-20.06-13.62-14.03-11.46-13.5-15.13-6.92-12.9,23.15-42.98,50.35-74.01,66.93l-7.9,4.22c5.72,15.57,8.95,26.53,19.95,36.74,14.97,13.92,35.21,19.54,56.55,15.74h0ZM1831.83,2182.58c9.64-1.95,20.38-6.57,29.93-12.82,9.59-6.27,27.78-24.41,35.19-35.05,11.63-16.72,19.74-36.32,23.49-53.83-17.39,3.67-37.26,11.96-53.84,23.49-10.62,7.41-28.78,25.6-35.05,35.19-8.41,12.82-14.39,29.86-14.39,41.07,0,3.35.17,3.52,3.52,3.52,1.94,0,6.95-.71,11.15-1.56h0ZM2183.83,2180.63c0-11.21-5.97-28.26-14.37-41.07-6.29-9.59-24.42-27.78-35.06-35.19-16.59-11.55-36.42-19.82-53.83-23.49,3.77,17.59,11.81,37.02,23.5,53.83,7.38,10.63,25.59,28.77,35.15,35.05,12.94,8.49,28.74,14.09,40.39,14.32,4.18.08,4.21.05,4.21-3.45h0ZM1783.04,2171.5c4.93-29.13,16.32-50.69,38.59-73.06,22.66-22.78,52.13-39.07,85.04-47.01l14.73-3.54c-.97-7.37-3.57-16.51-8.32-22.69-1.38-1.8-1.86-1.63-11.26,4.29-20.06,12.63-39.43,20.41-63.67,25.56-11.16,2.34-14.73,2.64-32.36,2.68-35.24.07-55.67-6.21-82.73-26.16-12.54,29.74-18.76,67.13-38.01,95.28l-4.43,6.49c24.25,4.8,29.14,6.26,68.17,25.71,17.71,8.82,32.52,16.08,32.91,16.12.38.05.98-1.61,1.34-3.65h0ZM2251.89,2159.11c39.41-19.53,44.22-20.98,68.48-25.78-14.4-21.48-17.93-28.51-31.95-71.64l-10.47-30.13c-27.14,19.94-47.39,26.23-82.73,26.16-17.63-.03-21.22-.33-32.36-2.68-24.24-5.15-43.61-12.93-63.68-25.56-9.39-5.92-9.87-6.09-11.25-4.29-4.77,6.21-7.35,15.32-8.33,22.69l14.71,3.54c46.56,11.23,86.21,39.39,108.68,77.16,7.3,12.3,12.11,26.07,14.97,42.92.35,2.04.81,3.72,1.01,3.72.22,0,15.02-7.26,32.91-16.12h0ZM1157.2,2165.57c5.55-26.96,7.57-13.27-7.62-43.35-11.76-23.3-17.12-32.65-27.2-47.58-22.65-33.5-41.94-48.49-75.25-58.41-26.53-7.91-27.79-22.52,1.22-31.22,48.22-14.47,70.92-45.6,101.23-105.59,4.68-9.25,9.35-18.17,10.4-19.81,1.87-2.97,1.87-3.02-1.04-15.83-3.56-15.76-1.5-14.04-9.33-12.04-3.19.82-13.75,3.08-23.47,5.03-59.89,12.04-109.76,40.39-137.62,78.21-6.38,8.66-16.24,27.83-19.67,38.27-12.67,38.45-9.19,78.37,7.92,113.47,26.15,53.63,86.79,85.48,151.34,98.6,29.29,5.95,27.43,8.44,29.1.26h0ZM2849.73,2170.27c1.88-.53,12.28-2.78,23.1-4.97,64.56-13.09,125.29-44.95,151.42-98.6,17.09-35.09,20.57-75,7.91-113.47-3.43-10.44-13.3-29.62-19.68-38.27-27.87-37.82-77.74-66.17-137.62-78.21l-29.58-6.19c-.18.17-1.62,6.22-3.19,13.43-2.84,12.95-2.85,13.13-1,15.84,1.04,1.5,5.7,10.31,10.35,19.56,11.26,22.31,16.95,32.37,26.18,46.19,46.75,70.03,85.4,52.37,95.27,71.45,1.82,3.52,1.82,3.81.16,7.31-2.29,4.83-8.56,8.7-19.17,11.86-33.32,9.92-52.61,24.91-75.25,58.41-10.12,14.96-15.47,24.34-27.2,47.58-15.03,29.84-13.21,15.84-7.62,43.35,1.41,6.96,1.16,6.1,5.93,4.71ZM1613.02,2138.52c13.62-3.24,23.9-8.91,33.2-18.26,6.95-7.02,18.46-23.52,17.24-24.75-.23-.23-2.64.04-5.36.61-7.99,1.61-34.41,1.34-45.1-.49-48.96-8.36-89.48-37.29-101.72-72.64-3.9-11.31-3.9-33.08,0-44.4,12.23-35.33,52.76-64.26,101.72-72.62,10.69-1.83,37.11-2.12,45.1-.48,2.72.55,5.13.82,5.36.61,1.22-1.23-10.29-17.74-17.24-24.75-14.01-14.1-32.34-20.95-53.52-20.02-37.55,1.64-69.1,31.2-115.94,75.52-38.96,36.85-54.11,48.94-73.03,58.24-5.84,2.85-10.61,5.42-10.61,5.69s4.77,2.84,10.61,5.71c46.77,22.99,100.32,93.61,150.23,121.85,20.34,11.52,39.52,14.82,59.06,10.15ZM2426.12,2137.61c58.25-18.44,116.9-104.44,171.14-131.09,5.84-2.87,10.59-5.43,10.59-5.71s-4.75-2.84-10.59-5.69c-48.83-23.91-103.33-98.46-155.55-124.58-12.97-6.48-20.77-8.62-33.44-9.18-21.17-.93-39.5,5.92-53.5,20.02-6.96,7.01-18.46,23.52-17.24,24.75.22.21,2.62-.06,5.35-.61,8-1.63,34.42-1.34,45.11.48,48.98,8.36,89.48,37.29,101.7,72.62,3.94,11.4,3.94,33.01,0,44.4-12.21,35.35-52.72,64.28-101.7,72.64-10.69,1.83-37.11,2.1-45.11.49-2.72-.57-5.13-.84-5.35-.61-1.22,1.23,10.28,17.73,17.24,24.75,9.13,9.18,19.36,14.9,32.69,18.26,10.8,2.71,28.56,2.29,38.66-.91ZM1178.88,2093.39c17.33-36.29,52.17-72.47,89.82-89.23,8.29-3.69,8.18-3.02,0-6.66-36.53-16.25-71.76-51.41-89.89-89.38l-5.05-10.59c-15.36,39.93-35.07,77.91-72.06,98.4-10.25,5.68-10.27,4.08,0,9.77,16.58,9.18,32.47,24.32,44.79,42.68,7.31,10.88,19.37,34.71,24.22,47.8,3.74,10.19,1.78,10.56,8.17-2.79h0ZM2841.3,2071.57c14.92-30.49,34.74-52.99,57.99-65.87,10.25-5.69,10.24-4.09,0-9.77-28.31-15.68-50.79-44.87-68.22-88.58l-3.89-9.74-5.03,10.55c-17.36,36.36-52.19,72.53-89.86,89.33-8.21,3.66-8.29,2.95,0,6.66,36.91,16.52,71.8,51.51,89.86,89.33l5.03,10.54,14.11-32.44ZM905.66,2079.08c6.49-1.56,30.52-11.9,30.52-13.14,0-.23-.91-3.05-2.02-6.26-1.12-3.21-3.23-11.42-4.7-18.25-2.55-11.8-2.65-13.67-2.65-40.63s.11-28.81,2.65-40.63c1.47-6.8,3.58-15.02,4.7-18.24,2.73-7.9,4.62-5.44-9.41-12.1-14.83-7.05-23.92-9.41-36.65-9.47-20.65-.11-38.47,7.54-53.77,23.12-15.58,15.86-22.3,33.13-22.3,57.31s6.71,41.45,22.3,57.32c19.81,20.17,44.47,27.42,71.31,20.96h0ZM3130.21,2079.37c22.37-5.28,44.44-24.21,52.94-45.42,9.89-24.69,7.21-57.81-6.34-78.21-17.82-26.8-50.13-41.49-81.5-33.32-6.62,1.73-30.5,12.1-30.5,13.25,0,.23.92,3.05,2.03,6.26,1.11,3.22,3.21,11.43,4.67,18.24,2.55,11.82,2.68,13.7,2.68,40.63s-.13,28.83-2.68,40.63c-1.47,6.82-3.56,15.04-4.67,18.25-1.11,3.22-2.03,6.04-2.03,6.26,0,.88,22.63,11.09,28.06,12.65,12.01,3.46,24.77,3.74,37.34.78h0ZM1681.79,2044.15c7.47-22.65,10.05-29.09,16.76-43.35-10.15-21.55-16.71-43.21-25.34-69.37-21.99,0-36.41-.16-57.21,5.06-32.5,8.16-63.05,33.09-70.47,57.54-2.56,8.42-2.57,5.11,0,13.56,7.42,24.48,37.93,49.35,70.56,57.57,21.13,5.32,33.98,4.82,57.13,5.01l8.58-26.02h0ZM2363.4,2069.08c29.79-3.19,55.31-14.82,74.41-33.89,7.61-7.61,14.98-19.05,17.71-27.53,2.73-8.5,2.73-5.21,0-13.71-8-24.82-38.08-49.32-70.52-57.46-20.81-5.22-35.23-5.06-57.22-5.06-8.62,26.13-15.19,47.86-25.33,69.37,10.16,21.61,16.68,43.16,25.33,69.37l35.62-1.09h0ZM2006,2063.2c7.48-5.15,20.32-10.75,30.6-13.34,12.61-3.18,9.74-.36,12.93-12.96,2.61-10.26,8.2-23.11,13.36-30.58,3.88-5.63,3.89-5.39,0-11.01-5.15-7.48-10.74-20.33-13.36-30.6-3.21-12.64-.31-9.73-12.93-12.93-10.28-2.62-23.12-8.21-30.6-13.36-5.65-3.9-5.36-3.89-11.02,0-7.46,5.15-20.32,10.74-30.58,13.36-12.61,3.2-9.75.31-12.95,12.93-2.6,10.27-8.2,23.12-13.35,30.6-3.89,5.63-3.87,5.38,0,11.01,5.15,7.47,10.74,20.32,13.35,30.58,3.19,12.6.35,9.77,12.95,12.94,9.86,2.49,24.65,9.03,31.15,13.75,4.45,3.24,5.2,3.21,10.45-.4ZM1835.27,2021.67c17.2-3.41,40.26-12.44,49.71-19.44,1.91-1.41,1.91-1.45,0-2.85-4.64-3.45-19.6-10.6-28.94-13.82-17.65-6.12-29.83-8.07-49.77-7.95-15.29.1-18.52.42-27.25,2.7-17.21,4.5-27.28,11.09-37.67,20.48l4.73,4.27c9.37,8.5,27.82,16.2,44.29,18.48,10.39,1.46,32.85.51,44.91-1.89h0ZM2221.98,2021.21c17.17-4.35,27.22-10.99,37.65-20.41-10.38-9.38-20.46-15.99-37.65-20.48-8.74-2.28-11.96-2.6-27.25-2.7-19.95-.12-32.11,1.83-49.77,7.95-9.35,3.22-24.29,10.37-28.96,13.82-1.9,1.4-1.9,1.44,0,2.85,9.63,7.13,33.02,16.22,49.77,19.33,15.78,2.94,15.41,2.91,31.44,2.52,11.8-.27,16.91-.87,24.78-2.87h0ZM1372.26,1988.94c14.79-8.06,25.28-16.69,39.45-28.48l-9.44-.66c-39.13-2.75-85.51-22.37-115.88-49.01-27.72-24.3-47.53-58.52-40.51-95.77,2.1-11.09,2.02-11.33-7.78-30.74-18.56-36.76-55.65-76.06-89.02-105.91,15.84,36.08,20.66,53.53,34.38,127.21,13.14,70.56,18.21,99.96,56.47,138.22,13.97,13.98,26.22,22.94,42.62,31.16,35.04,17.58,42.64,12.65,66.89,17.4,11.23,2.2,12.92,1.96,22.83-3.42ZM2650.99,1992.41c25.82-4.62,33.55-.43,67.47-17.44,30.98-15.53,58.43-42.89,73.81-73.76,10.32-20.73,13.43-32.41,24.86-93.65,14.18-75.84,18.95-93.28,34.8-129.17-33.32,29.71-70.57,69.29-89.05,105.91-9.79,19.4-9.86,19.65-7.77,30.74,7.01,37.25-12.78,71.47-40.5,95.77-30.39,26.63-76.77,46.25-115.91,49.01l-9.41.66c15.98,13.3,42.19,33.14,50.82,33.34,1.57.03,6.48-.58,10.88-1.4ZM1916.53,1970c3.65-7.19,4.08-10.14,4.9-16.31l-10.27-2.3c-60.01-13.39-115.99-56.74-127.17-116.21-.83-4.48-1.7-8.33-1.89-8.5-.2-.19-15.02,6.9-32.93,15.79-39.36,19.51-44.43,21.09-68.56,25.81,14.19,20.8,18.05,28.83,31.96,71.64l10.47,30.14c27.17-19.93,47.35-26.22,82.73-26.16,17.63.03,21.19.32,32.36,2.69,24.2,5.14,43.91,13.04,63.27,25.34,11.78,7.51,10.24,7.82,15.13-1.92h0ZM2099.44,1971.98c19.8-12.49,39.29-20.28,63.43-25.39,11.14-2.37,14.73-2.65,32.36-2.69,35.48-.06,55.47,6.24,82.73,26.16,12.78-30.87,18.42-65.96,37.69-94.72l4.73-7.06c-24.18-4.72-29.17-6.28-68.55-25.81-17.92-8.89-32.75-15.98-32.94-15.79-.18.17-1.05,4.02-1.9,8.5-11.29,59.52-66.88,102.83-127.05,116.2-11.58,2.57-11.68,2.71-8.37,12.28,1.74,5.06,6.77,14.36,7.75,14.36.29,0,4.84-2.72,10.12-6.03h0ZM1507,1868.6c5.7-4.77,15.3-11.96,21.3-15.96,10.48-7.01,27.86-16.34,30.38-16.34,3.53,0-4.09-3.07-40.3-16.17-64.56-23.36-124.54-43.83-176.24-42.02-29.19,1.04-45.27,8.77-56.08,26.94-19,31.94-2.99,68.69,43.5,99.83,34.8,23.32,64.04,27.51,102.6,36.16,18.55-18.34,61.88-61.59,74.83-72.42h0ZM2595.08,1935.31c31.7-6.79,54.81-16,76.36-30.45,46.47-31.14,62.5-67.89,43.5-99.83-7.44-12.48-17.97-20.13-33.66-24.42-7.52-2.04-10.54-2.29-28.72-2.29-42.49,0-79.99,9.23-169.96,41.8-36.19,13.11-43.82,16.17-40.28,16.17,2.52,0,19.87,9.34,30.38,16.34,27.41,18.29,62.81,55.53,95.94,88.42l26.44-5.74h0ZM1968.28,1917.65c10.83-5.16,10.64-4.29,3.54-15.55-12.62-20.06-20.39-39.43-25.55-63.67-2.35-11.15-2.64-14.73-2.68-32.36-.07-35.38,6.21-55.55,26.16-82.73-30.35-12.71-65.75-18.27-94.72-37.69l-7.05-4.73c-4.79,24.19-6.28,29.14-25.8,68.55-8.89,17.92-16,32.74-15.81,32.93.19.19,4.02,1.06,8.5,1.91,59.63,11.31,102.82,66.84,116.23,127.16l2.28,10.26c5.53-.75,8.87-1.18,14.9-4.08h0ZM2049.93,1911.37c13.39-60.18,56.64-115.76,116.18-127.05,4.49-.86,8.34-1.72,8.52-1.91.18-.19-6.92-15.01-15.81-32.93-19.54-39.42-21.04-44.33-25.8-68.55-21.63,14.51-28.66,18.01-71.63,31.95l-30.15,10.47c19.92,27.21,26.22,47.31,26.16,82.73-.03,17.63-.32,21.21-2.7,32.36-5.11,24.14-12.89,43.62-25.38,63.43-3.33,5.28-6.04,9.82-6.04,10.12,0,.98,9.31,6.01,14.36,7.75,9.57,3.3,9.71,3.21,12.28-8.36h0ZM1919.71,1917.32c-3.16-14.83-12.63-35.83-22.77-50.42-7.41-10.62-25.6-28.75-35.19-35.05-12.82-8.4-29.86-14.37-41.08-14.37-3.35,0-3.52.14-3.52,3.5,0,1.94.71,6.95,1.57,11.16,7.31,35.96,46.06,72.63,90.68,85.83,11.07,3.27,11.13,3.27,10.31-.65ZM2096.24,1916.47c11.24-3.58,27.24-11.63,38.16-19.23,10.64-7.38,28.76-25.6,35.06-35.15,8.4-12.85,14.37-29.9,14.37-41.11,0-3.35-.15-3.5-3.5-3.5-11.21,0-28.27,5.97-41.1,14.37-9.57,6.29-27.77,24.42-35.15,35.05-11.69,16.81-19.74,36.26-23.51,53.84l15.68-4.27h0ZM950.2,1907.88c12.9-23.12,42.98-50.32,74.01-66.9l7.9-4.23c-5.95-16.13-8.9-26.55-20.54-37.26-26.81-24.65-90.87-29.42-99.41,39.12-1.87,14.99,1.72,32.69,9.31,46.06,2.78,4.86,23.9,27.98,25.54,27.92.32,0,1.76-2.13,3.19-4.71ZM3065.93,1900.96c9.49-9.77,11.96-13,15.41-20.06,13.28-27.24,9.76-62.88-10.84-84.19-18.59-19.22-58.66-17.85-81.07,2.79-11.67,10.74-14.62,21.11-20.54,37.26l7.9,4.23c31.03,16.57,61.11,43.77,74.01,66.9,3.68,6.6,1.51,7.1,15.13-6.92h0ZM2005.48,1879.24c16.85-29.46,23.03-69.62,15.39-99.91-4.38-17.36-10.92-27.3-20.37-37.66-9.36,10.36-16.01,20.5-20.48,37.66-3.86,14.8-3.63,40.54-.55,55.72,2.28,11.25,7.67,28.07,11.32,35.41,3.34,6.69,9.11,16.39,9.75,16.39.33,0,2.57-3.42,4.96-7.61h0ZM1680.89,1833.42l14.55-4.06-6.27-4.7c-26.28-19.65-47.48-53.5-56.05-89.44-1.36-5.69-1.78-11.57-1.78-25.25,0-20.32,1.5-27.69,8.19-40.6,5.02-9.64,19.87-24.49,29.52-29.5,12.88-6.72,20.27-8.19,40.57-8.19,18.94,0,24,.75,40.64,6.06,26.99,8.64,57.08,29.03,74.08,51.75l4.7,6.28c2.96-7.62,5.93-21.33,5.95-29.69.03-15.83-8.13-35.56-19.92-48.19-27.61-29.56-76.9-30.75-130.64-32.3-65.46-1.89-87.84-4.48-107.44-12.44-7.72-3.13-7.31-3.53-4.18,4.17,15.12,37.15,9.88,101.45,14.5,153.97,3.99,44.24,12.27,67.33,30.08,83.94,9.89,9.21,26.02,17.4,38.24,19.44,6.15,1.02,17.1.49,25.25-1.22h0ZM2354.28,1832.34c56.86-18.92,59.39-75.93,61.46-147.61,1.88-65.45,4.48-87.83,12.43-107.43,3.13-7.7,3.54-7.28-4.16-4.17-19.6,7.96-42.26,10.59-107.29,12.44-53.46,1.52-103.14,2.71-130.73,32.24-11.68,12.5-20.02,32.51-19.99,47.96,0,8.67,2.95,22.24,5.95,29.99l4.7-6.28c19.6-26.21,53.56-47.51,89.43-56.04,10.81-2.59,39.77-2.75,50.99.51,13.1,3.79,20.69,8.38,31.34,18.99,17.58,17.49,21.22,31.06,21.22,57.02,0,18.94-.75,24-6.07,40.63-8.63,27-29.02,57.06-51.74,74.07l-6.28,4.7c14.96,5.81,34.59,7.68,48.73,2.98h0ZM1091.77,1816.13c19.4-4.27,32.69-5.81,47.18-5.44,7.3.19,13.27.3,13.27.26,0-2.55-6.42-30.35-7.9-34.35-14.06-37.68-58.16-37.56-79.1-15.17-17.59,18.81-14.95,38.11-10.7,65.61l37.25-10.92h0ZM2949.77,1799.65c.45-59.26-74.53-72.88-93.08-23.04-1.48,3.99-7.9,31.8-7.92,34.35,0,.05,5.97-.06,13.27-.26,28.35-.75,53.67,6.31,84.35,16.33,1.47-8.82,3.31-19,3.38-27.37h0ZM1744.01,1806.25c21.29-10.8,27.8-13.51,43.05-18.88,8.2-23.36,18.33-41.96,31.08-67.13-20.53-19.74-32.36-32.17-55.68-42.93-14.96-6.92-38.24-11.32-52.8-9.97-12.98,1.19-28.29,6.41-32.36,11.04-2.72,3.11-5.68,9.77-7.71,17.38-7.1,26.68.19,60.1,19.1,87.52,4.05,5.85,29.68,34.88,31.05,35.14.1.01,11.02-5.46,24.27-12.18ZM2294.28,1804.63c24.7-26.17,36.02-48.55,39.22-77.72,1.7-15.32-.66-31.71-6.11-42.55-2.87-5.69-4.59-7.45-9.98-10.18-28.35-14.36-69.08-5.01-96.17,12.75-14.62,9.59-23.32,18.82-38.41,33.29,12.81,25.3,22.82,43.66,31.1,67.14,15.17,5.34,21.64,8.04,42.72,18.81,13.07,6.68,24.06,12.06,24.39,11.96.33-.1,6.29-6.18,13.23-13.51h0ZM1569.41,1799.4c-15.2-39.17-12.86-95.61-12.86-158.11-26.54-17.24-48.23-31.91-74.78-40.75-55.96-18.6-103.51-10.46-119.76,20.49-18.73,35.78,3.83,64.55,34.06,89.34,42.8,35.09,99.43,60.28,175.97,96.12.09.05-1.11-3.15-2.63-7.11h0ZM2463.78,1790.25c64.56-29.63,166.59-79.15,180.74-130.84,1.58-5.76,1.34-18.59-.47-25.61-9.29-35.99-48.2-50.78-103.28-39.28-36.29,7.58-61.47,24.1-96.32,46.73,0,62.38,2.33,119.02-12.8,158.03l-2.74,7.07,34.87-16.1h0ZM1285.55,1757.2c8.38-4.94,19.68-9.19,31.16-11.7,10.83-2.38,47.02-2.44,60.96-.13,12.06,2.01,12.28,3.53-1.55-7.14-27.87-21.48-55.08-52.14-55.63-87.48-.17-11.16,1.09-9.69-9.85-5.28-40.37,16.27-85.28,19.23-130.79,15.34,17.33,14.98,31.49,27.64,46.03,45.69,17.7,21.98,30.85,45.43,39.56,67.45,6.4-6.14,12.45-12.2,20.11-16.76h0ZM2744.39,1754.4c14.45-29.79,38.79-60.79,66.54-84.76l10.24-8.82c-45.53,3.88-90.43.93-130.81-15.34-10.96-4.42-9.49-5.87-9.77,5.28-1.4,55.78-67.67,94.99-66.35,95.96.1.09,4.19-.54,9.09-1.35,12.97-2.17,49.78-2.55,62.54.47,24.61,5.81,35.48,13.91,49.44,28.09l9.08-19.53h0ZM2009.53,1694.62c9.98-4.76,44.79-15.98,60.34-21.09,0-21.99.17-36.44-5.05-57.23-8.16-32.49-33.09-63.04-57.55-70.47-8.41-2.56-5.14-2.56-13.57,0-24.44,7.43-49.38,37.98-57.53,70.47-5.22,20.83-5.05,35.22-5.05,57.23,15.19,5,50.49,16.38,59.96,20.99,10.31,5.01,7.89,5.09,18.45.1ZM1905.97,1662.31c-.34-.86-1.1-6.92-1.7-13.45-4.68-51.37,23.44-119.69,74.03-137.23,11.37-3.94,33.01-3.94,44.39,0,35.34,12.21,64.27,52.72,72.63,101.7,1.82,10.69,2.11,37.11.49,45.11-.55,2.72-.82,5.13-.62,5.33,1.22,1.23,17.74-10.27,24.75-17.24,14.09-13.99,20.95-32.31,20.01-53.5-1.74-39.39-35.89-74.08-75.51-115.95-36.85-38.96-48.95-54.11-58.24-73.03-2.86-5.84-5.42-10.6-5.7-10.6s-2.84,4.76-5.71,10.6c-23.97,48.82-98.66,103.75-124.43,155.3-11.89,23.79-13.05,47.22-1.4,70.84,5.24,10.63,15.43,21.23,27.46,28.57,8.94,5.45,10.52,6.05,9.57,3.55h0ZM815.65,1655.49c29.82-39.61,69.79-66.4,113.13-75.81,11.7-2.55,30.81-4.37,39.29-3.76,9.18.65,9.1,2.52-2.42-9.25-38.22-39.04-54.54-96.15-47.91-152.91.88-7.59,1.61-14.16,1.61-14.62,0-2.51-50.66,1.87-71.85,6.18-38.32,7.81-72.84,27.59-91.67,52.58-21.92,29.1-26.16,64.33-12.73,105.87,11.13,34.43,32.5,59.65,59.32,90.54,4.07,4.7,7.48,8.55,7.57,8.56.05,0,2.61-3.31,5.67-7.38h0ZM3208.09,1643.4c27.61-32.03,41.71-54.53,49.82-79.62,11.03-34.14,10.28-62.71-2.35-88.86-19.18-39.65-64.63-66.26-124.83-73.06-28.62-3.25-49.05-4.37-49.05-2.71,0,.46.72,7.03,1.6,14.62,6.56,56.75-9.66,113.86-47.91,152.91-11.52,11.76-11.64,9.91-2.44,9.25,8.51-.62,27.6,1.21,39.31,3.76,43.38,9.42,83.29,36.18,113.2,75.93l5.67,7.5,16.98-19.72h0ZM1252.33,1625.78c24.34-2.39,43.22-6.24,60.42-12.32,15.98-5.66,17.19-6.42,21.94-13.72,24.32-37.49,77.8-50.27,137.87-32.97,27.76,8,59.07,24.6,76.09,40.36,8.03,7.43,7.68,8.03,5.46-9.87-2.06-16.66-3.27-22.85-6.6-33.73-3.66-12-.95-8.26-11.08-15.36-4.47-3.13-11.92-8.97-16.56-12.97-14.07-12.14-43.21-25.2-65.55-29.33-36-6.69-74.49-1.49-105.89,14.35-40.33,20.34-110.26,79.53-166.88,102.18l-10.78,4.32c21.6,1.45,57.86,1.38,81.56-.94ZM2819.93,1627.33l10.31-.61c-37.57-15.03-51.62-22.76-112.53-64.58-36.34-24.96-53.95-36.28-65.16-41.92-31.41-15.84-69.89-21.04-105.87-14.35-22.34,4.14-51.48,17.19-65.57,29.33-4.62,4-12.07,9.84-16.54,12.97-10.16,7.11-7.4,3.34-11.08,15.36-3.35,10.88-4.56,17.07-6.62,33.73-2.2,17.9-2.55,17.29,5.48,9.87,17.03-15.76,48.34-32.36,76.1-40.36,60.04-17.29,113.54-4.51,137.86,32.97,4.74,7.3,5.97,8.08,21.78,13.66,33.49,11.83,88.03,16.58,131.84,13.94h0ZM1138.49,1599.51c6.2-1.04,15.38-3.27,20.42-4.92,10.99-3.6,24.04-8.94,24.04-9.84,0-2.09-30.98-10.78-44.21-49.21-2.44-7.07-2.74-9.37-2.78-21.3-.07-19.82,2.67-24.4,10.16-40.57-65.68-10.68-105.65-74.72-64.6-136.52,5.39-8.15,17.33-20.43,26.49-27.26,27.57-20.55,35.69-10,23.89-20.8-35.78-32.69-41.14-93.12-12.05-136.07,4.72-6.97,20.52-23.54,27.78-29.14,41.12-31.69,105.48-30.66,141.17,8.34,10.77,11.77.28,3.62,20.78-23.91,28.73-38.56,76.16-53.72,111.81-35.73,28.56,14.39,46.83,41.83,51.96,73.84,16.15-7.48,20.74-10.23,40.57-10.16,11.94.05,14.22.34,21.3,2.77,38.35,13.17,47.1,44.21,49.21,44.21,1.17,0,21.75-42.71,15.18-83.09-7.73-47.53-53.94-73.35-103.33-83.08-12.59-2.48-15.48-2.68-39.36-2.73-28.03-.05-36.13.84-58.79,6.41-20.42,5.01-34.37,10.53-67.57,26.72-65.41,31.9-117.78,53.22-179.72,51.26-63.84-2.02-76.58-30.24-66.56-9.92,20.61,41.81,16.62,97.49,3.07,144.18-8.45,29.13-17.85,52.02-40.24,97.94-16.17,33.19-21.69,47.14-26.71,67.54-5.57,22.76-6.45,30.76-6.37,58.79.04,23.79.26,26.82,2.71,39.38,8.84,45.09,29.13,78.65,57.31,94.69,16.24,9.24,40.37,12.32,64.42,8.19h0ZM2900.31,1600.06c47.82-7.81,73.67-51.22,83.92-103.44,2.47-12.55,2.68-15.59,2.73-39.38.06-28.03-.81-36.03-6.39-58.79-15.55-63.42-60.48-111.45-75.94-205.8-2.58-15.72-2.57-52.53.03-66.4,7.97-42.63,24.7-49.99,7.95-41.74-10.13,5-22.74,9.2-35.31,11.75-9.76,1.96-14.1,2.26-34.45,2.23-24.64,0-33.05-.9-55.92-6.02-74.95-16.73-128.94-58.22-184.07-71.75-22.66-5.56-30.76-6.45-58.79-6.41-23.87.05-26.78.25-39.38,2.73-45.17,8.89-78.64,29.14-94.69,57.31-25.38,44.56,5.22,108.87,6.57,108.87,2.08,0,10.86-31.04,49.2-44.21,7.08-2.43,9.39-2.72,21.31-2.77,19.81-.07,24.43,2.68,40.57,10.16,10.59-64.9,73.84-105.98,136.52-64.6,8.14,5.39,20.44,17.32,27.26,26.48,20.51,27.54,10.01,35.68,20.78,23.91,34.28-37.52,98.39-41.3,141.15-8.34,7.28,5.6,23.08,22.17,27.79,29.14,21.3,31.45,24.78,74.69,8.68,108.24-4.21,8.79-13.45,21.19-20.73,27.83-11.8,10.78-3.61.29,23.91,20.8,38.57,28.74,53.71,76.16,35.72,111.82-14.45,28.67-41.76,46.71-73.84,51.95,7.49,16.16,10.22,20.74,10.16,40.57-.03,11.93-.33,14.23-2.77,21.3-13.23,38.45-44.21,47.1-44.21,49.21,0,.9,13.02,6.24,24.03,9.84,19.08,6.26,40.88,8.31,58.22,5.47h0ZM1801.71,1563.03c-2.47-5.3-9.02-19.47-14.55-31.46-46.45-100.8-82.33-152.93-117.15-170.27-9.24-4.59-13.38-5.6-22.66-5.62-21.1-.01-39.33,11.04-48.27,29.23-6.69,13.63-8.2,21.13-8.23,41.13-.09,52.43,20.05,84.41,50.1,130.81,53.32.03,120.97-2.75,158.88,13.19,8.04,3.39,7.54,5.22,1.89-7h0ZM2219.01,1564.43c36.71-9.24,87.15-7.56,141.05-7.59,25.62-39.49,40.22-61.05,48.43-104.55,2.6-13.77,2.33-41.06-.51-51.52-6.38-23.52-20.11-38.27-40.47-43.52-7.02-1.8-19.86-2.05-25.62-.47-59.56,16.36-114.94,146.72-146.93,215.62l24.05-7.97h0ZM999.29,1556.2c-16.62-33.05-23.15-85.44-18.59-125.21,4.45-38.67,12.93-64.43,36.55-110.95,32.81-64.65,56.31-118.33,54.37-173.96-1.01-29.15-6.28-49.05-21.74-82.24-6.87-14.74-9.03-20.95-7.61-21.84,1.08-.66,11.31,3.42,28.19,11.25,87.46,40.48,159.99,9.61,249.28-35.7,46.53-23.61,72.5-32.17,110.95-36.52,13.81-1.56,44.61-1.6,56.99-.06,23.65,2.95,48.4,9.51,65.41,17.36,11.07,5.13,10.79,5.2-1.86-7.11-33.26-32.37-77.75-46.33-128.58-40.38-32.42,3.79-56.53,10.88-128.21,37.69-77.25,28.89-99.42,34.96-139.85,38.23-49.78,4.02-107.92-4.74-150.92-23.6-.97-.42-1.21-.17-.79.79,22.18,50.12,30.05,118.54,20.43,177.69-18.69,114.91-120.2,241.42-48.75,349.94,6.87,10.42,25.53,31.09,26.86,29.76.17-.17-.78-2.48-2.12-5.13h0ZM3013.25,1548.39c29.71-32.05,42.93-76.57,37.22-125.44-3.79-32.43-10.68-55.83-37.72-128.21-28.85-77.26-34.95-99.57-38.21-139.87-4.02-49.71,4.68-107.98,23.59-150.92.42-.96.18-1.21-.79-.79-50.11,22.2-118.53,30.07-177.68,20.45-27.5-4.46-49.55-11.3-113.1-35.08-71.68-26.81-95.79-33.9-128.21-37.69-50.83-5.95-95.32,8.01-128.59,40.38-12.67,12.33-12.93,12.24-1.86,7.11,17.03-7.87,41.9-14.46,65.42-17.35,12.48-1.53,43.31-1.51,56.99.05,38.47,4.35,64.4,12.9,110.95,36.52,91.42,46.39,162.82,75.69,249.26,35.7,16.89-7.83,27.13-11.91,28.21-11.25,1.42.9-.74,7.11-7.61,21.84-15.44,33.15-20.74,53.16-21.75,82.24-1.93,55.66,21.57,109.31,54.38,173.96,23.61,46.52,32.1,72.28,36.54,110.95,4.58,39.73-1.94,92.09-18.54,125.08-1.28,2.56-2.35,4.95-2.35,5.3,0,1.07,6.2-4.74,13.85-12.98h0ZM1852.61,1528.11c18.01-26.77,55.7-62.88,88.11-95.64-9.02-38.57-12.18-66.82-36.16-102.62-31.13-46.46-67.9-62.5-99.83-43.49-12.49,7.43-20.13,17.97-24.41,33.66-2.05,7.53-2.29,10.55-2.29,28.73,0,42.5,9.25,80.16,41.81,169.94,7.9,21.8,14.58,39.97,14.83,40.39l17.94-30.98h0ZM2181.18,1518.69c23.7-65.48,41.79-117.28,41.79-169.94,0-18.18-.24-21.21-2.29-28.73-4.28-15.68-11.94-26.23-24.41-33.66-31.94-19.02-68.7-2.97-99.83,43.49-19.67,29.35-27.12,56.46-35.87,103.12,32.8,33.05,69.82,68.25,88.11,95.63,7.07,10.58,16.33,27.77,16.33,30.34,0,3.59,3.01-3.91,16.17-40.25h0ZM1232.59,1555.65c5.64-2.08,33.57-19.21,33.59-20.61,0-.26-2.49-2.5-5.52-4.96-12.51-10.11-32.46-37.41-45.03-61.63l-7.03-13.58-8.79,6.42c-23.82,17.41-33.73,36.86-29.38,57.67,3.61,17.23,16.68,32.01,33.8,38.14,6.86,2.47,19.46,1.83,28.35-1.45h0ZM2802.8,1554.41c18.45-9.11,30.73-29.97,28.58-48.54-2.76-23.78-18.19-35.76-38.98-51l-7.05,13.58c-12.54,24.22-32.48,51.52-45,61.63-3.03,2.45-5.52,4.7-5.52,4.96,0,.27,5.91,4.37,13.13,9.1,18.58,12.16,25.73,14.77,39.06,14.33,7.12-.24,9.07-.74,15.77-4.06h0ZM1606.82,1548.96c-30.2-32.6-52.3-95.45-47.39-141.02,3.58-33.16,17.33-58.24,40-72.95,7.31-4.74,8.04-5.93,13.71-21.92,14.56-41.05,16.08-97.99,13.26-141.98-15,37.55-22.82,51.64-64.59,112.5-34.59,50.41-42.01,62.78-49.16,81.99-9.27,24.93-12.45,58.35-8.03,84.25,4.37,25.61,16.98,54.84,30.44,70.55,4.01,4.68,9.8,12.12,12.89,16.5,7.01,9.97,3.23,7.24,15.27,10.95,14.56,4.48,35.44,7.54,49.99,8.03l-6.39-6.9h0ZM2404.06,1554.43c16.66-2.08,22.84-3.29,33.73-6.62,11.99-3.67,8.28-.99,15.26-10.94,3.08-4.38,8.92-11.83,12.97-16.55,12.14-14.12,24.14-40.57,29-63.89,7.4-35.56,2.21-75.7-13.92-107.69-20.24-40.17-79.53-110.26-102.18-166.88l-4.32-10.79c-2.8,44.17-1.32,100.77,13.25,141.98,5.67,15.99,6.42,17.18,13.73,21.92,36.74,23.86,49.7,75.02,33.97,134.25-7.62,28.77-24.78,61.81-41.35,79.73-7.44,8.03-8.03,7.67,9.87,5.48ZM1294.65,1516.72c10.69-6.72,11.08-7.08,12.05-11.41.54-2.45,4.17-14.25,8.06-26.24,12.23-37.6,16.15-57.39,16.21-81.78.12-48.83-19.53-56.19-20.95-75.46-.45-6.19-.31-6.8,2.21-9.31,5.8-5.76,17.55-.86,27.51,4.43,21.46,11.39,33.46,14.39,57.27,14.33,24.38-.06,44.17-3.98,81.77-16.21,11.97-3.91,23.8-7.54,26.25-8.08,4.31-.96,4.67-1.35,11.39-12.05,8.25-13.14,8.66-11.46,4.22-14-1.77-1.02-11.29-7.13-21.15-13.58-63.31-41.39-126.25-54.57-176.8-37-36.15,12.56-66.62,38.93-84.13,72.8-28.66,55.4-18.64,124.51,28.52,196.62l15.97,24.13c.3-.14,5.53-3.39,11.62-7.19h0ZM2720.39,1520.93c1.01-1.78,7.12-11.29,13.56-21.15,41.41-63.32,54.58-126.26,37-176.8-12.57-36.15-38.93-66.62-72.79-84.14-55.42-28.65-124.53-18.62-196.71,28.57l-24.06,15.94c.15.31,3.39,5.52,7.2,11.59,6.71,10.7,7.08,11.09,11.4,12.05,2.45.55,14.25,4.18,26.25,8.08,37.6,12.23,57.38,16.14,81.77,16.21,48.79.13,56.18-19.56,75.47-20.97,6.18-.44,6.79-.29,9.31,2.21,5.78,5.77.84,17.58-4.44,27.51-11.38,21.45-14.38,33.47-14.32,57.26.06,24.39,3.98,44.18,16.2,81.78,3.9,11.99,7.54,23.79,8.1,26.24.97,4.31,1.4,4.72,12.07,11.55,13.19,8.46,11.39,8.55,13.98,4.07ZM1367.38,1481.17c37.21-9.62,75.45-8.38,110.47,3.57l10.02,3.42-3.42-10.01c-13.35-39.08-13.63-87.64,1.69-127.16,3.69-9.51,4.78-8.53-13.84-.91-40.44,16.56-76.66,21.61-113.82,8.7,22.78,64.41-15,123.15-15,129.74l23.9-7.36ZM2653.03,1477.4c-19.04-45.1-23.53-81.77-10.5-118.6-37.15,12.88-73.29,7.91-113.84-8.7-24.04-9.86-15.6-9.67-8.55,17.6,9.62,37.19,8.38,75.44-3.58,110.46l-3.41,10.01,10-3.42c38.78-13.25,87.64-13.68,126.74,1.59,9.66,3.77,9.09,5.09,3.14-8.93ZM1175.09,1442.35c2.35-.6,25.55-8.73,24.24-12.09-1.74-4.51-5.71-19.36-7.45-27.92-6.28-30.91-4.96-58.48,1.77-84.32-13.03,0-27.72-.63-37.84,1.95-22.62,5.79-42.93,24.38-52.3,47.89-3.01,7.56-3.24,8.95-3.27,20.03q-.03,11.9,3.89,19.81c7.57,15.28,24.77,29.45,41.65,34.32,7.56,2.17,21.62,2.34,29.31.34h0ZM2854.1,1442.3c17.03-4.4,35.02-18.96,42.78-34.6q3.93-7.92,3.9-19.81c-.03-11.08-.26-12.47-3.27-20.03-9.37-23.5-29.68-42.1-52.31-47.89-10.12-2.59-24.79-1.95-37.83-1.95,5.15,19.78,7.48,44.06,4.71,66.43-1.76,14.19-6.86,36.68-10.39,45.82-1.3,3.31,20.58,11.06,22.83,11.73,7.64,2.24,21.53,2.39,29.6.31h0ZM1975.8,1392.45c9.38-12.58,17.77-27.77,17.74-32.14l-3.4-26.08c-5.09-52.15-42.18-101.76-89.22-125.2-20.73-10.32-32.42-13.44-93.65-24.88-76.42-14.28-92.76-18.85-129.19-34.79,29.9,33.48,69.19,70.46,106.12,89.15,19.14,9.67,19.46,9.75,30.54,7.67,37.23-7,71.52,12.77,95.74,40.5,26.71,30.58,46.03,76.14,49.02,115.53l.69,9.34,15.61-19.11h0ZM2044.55,1380.46c2.81-14,11.33-38.18,18.35-52.04,24.7-48.83,69.7-92.31,123.39-82.22,11.08,2.07,11.34,2.02,30.74-7.77,36.64-18.52,76.15-55.73,105.91-89.06-36.4,15.97-52.87,20.53-129.17,34.79-61.24,11.43-72.93,14.55-93.65,24.88-47.13,23.47-84.09,73.09-89.23,125.2-.82,8.25-1.9,16.78-2.43,18.96-1.75,7.23-1.2,9.96,3.91,19.37,8.03,14.76,16.7,25.35,28.24,39.03l3.95-31.14ZM1745.06,1377.96c-2.32-13.93-2.23-50.12.12-60.93,5.58-25.57,13.72-35.96,28.43-51.25-48.14-20.18-76.48-43.15-113.1-85.64,3.83,45.47.96,90.47-15.33,130.79-4.41,10.92-5.91,9.58,5.27,9.83,35.95.81,67.68,28.78,89.69,58.43,7.9,10.64,6.87,10.57,4.92-1.23h0ZM2266.17,1372.52c22.27-27.84,51.79-51.03,84.37-51.76,11.2-.25,9.7,1.09,5.29-9.83-16.21-40.13-19.26-85.49-15.33-130.79-36.6,42.47-65.01,65.48-113.1,85.64l6.28,6.54c15.68,16.33,23.12,37.1,24.15,67.49.5,14.95-1.27,39.94-3.26,46.35l11.6-13.65h0ZM1202.79,1293c.03-.69,2.15-4.92,4.71-9.42,20.08-35.16,52.73-64.58,86.29-81.2.81-.44-6.35-20.03-9.86-26.97-9.1-18.11-24.06-30.49-44.53-36.92-6.45-2.03-9.36-2.32-22.76-2.29-14.18.03-15.97.25-23.21,2.78-24.98,8.73-46.02,29.76-54.76,54.75-2.52,7.26-2.73,9.03-2.76,23.2-.03,13.4.27,16.31,2.29,22.76,6.19,19.71,18.31,34.74,35.27,43.8,5.75,3.07,25.48,10.59,28.06,10.69.68.03,1.25-.5,1.26-1.18h0ZM2810.22,1290.69c26.5-9.24,43.84-22.98,52.59-50.96,2.03-6.47,2.31-9.41,2.28-22.79-.02-14.17-.24-15.95-2.76-23.2-8.73-24.99-29.76-46.03-54.76-54.75-7.24-2.53-9.02-2.75-23.19-2.78-13.4-.03-16.3.26-22.76,2.29-20.48,6.43-35.44,18.82-44.55,36.92-3.5,6.94-10.65,26.53-9.84,26.97.17.09,3.69,1.91,7.77,4.04,29.29,15.28,60.82,46.27,78.49,77.15,2.59,4.49,4.7,8.73,4.71,9.42.05,1.76.67,1.63,12.02-2.31h0ZM2003.82,1269.01c16.45-36.84,51.6-71.83,89.33-89.85l10.55-5.04c-46.81-18.67-79.32-37.88-98.31-72.09-5.69-10.25-4.09-10.24-9.77,0-18.97,34.18-51.52,53.46-98.33,72.09l10.55,5.04c36.39,17.39,72.54,52.15,89.32,89.85,3.69,8.29,3,8.24,6.66,0h0ZM1544.08,1252.96c11.59-17.7,13.79-23.51,13.89-36.57.07-9.63-.06-10.21-3.79-17.74-7.02-14.23-20.44-24.76-35.51-27.91-20.82-4.34-40.25,5.57-57.67,29.39l-6.42,8.78,13.57,7.05c24.2,12.55,51.53,32.48,61.64,45,2.46,3.04,4.69,5.51,4.96,5.51s4.48-6.08,9.34-13.51h0ZM2471.23,1260.96c10.11-12.52,37.41-32.45,61.63-45l13.58-7.05-6.43-8.78c-17.43-23.82-36.86-33.73-57.67-29.39-15.07,3.15-28.49,13.68-35.53,27.91-3.7,7.53-3.83,8.12-3.77,17.74.04,8.36.47,11.05,2.72,16.78,2.32,5.94,19.16,33.29,20.5,33.3.26,0,2.49-2.47,4.96-5.51h0ZM1436.17,1190.65c5.63-12.12,7.41-19.12,7.41-29.2,0-16.87-6.37-31.21-19.79-44.64-6.53-6.53-10.28-9.36-16.39-12.39q-7.94-3.94-19.82-3.9c-11.07.03-12.45.25-20.02,3.27-23.52,9.37-42.11,29.68-47.89,52.31-2.59,10.1-1.95,24.75-1.95,37.76,18.67-4.46,27.48-6.14,50.88-5.39,37.02,1.2,60.12,11.34,62.39,11.53.45.05,2.79-4.18,5.18-9.37h0ZM2581.13,1196.54c34.19-9.93,68.34-11.39,102.16-2.58,0-13.04.63-27.71-1.96-37.83-5.79-22.63-24.39-42.94-47.88-52.31-7.57-3.02-8.95-3.24-20.04-3.27q-11.89-.05-19.8,3.9c-6.11,3.02-9.87,5.85-16.39,12.39-13.43,13.42-19.79,27.76-19.79,44.64,0,10.12,1.77,17.08,7.45,29.31,5.46,11.77,3.21,9.58,16.25,5.77h0ZM1879.1,1149.87c39.22-19.8,59.63-33.39,77.17-51.32,32.11-32.86,25.54-62.42,40.51-70.15,3.68-1.9,3.76-1.9,7.44,0,12.14,6.26,11.17,30,27.1,53.72,16.09,23.98,41.55,43.02,90.6,67.75,9.25,4.67,18.07,9.34,19.61,10.4,2.54,1.72,3.27,1.77,8.42.61,3.11-.69,9.15-2.01,13.42-2.95,10.13-2.21,8.23,1.93,2.06-27.68-4.81-23.15-8.88-37.13-15.82-54.18-24.39-59.95-62.48-99.03-116.41-110.91-33.89-7.47-67.19-3.43-98.6,11.91-54.79,26.78-85.35,87.23-99.03,153.18-6.11,29.45-7.93,25.5,1.59,27.58,24.68,5.4,13.4,6.47,41.94-7.97h0ZM1810.4,1139.26c-.75-28.53,6.34-53.7,16.35-84.43-27.43-4.24-46.84-6.89-65.63,10.7-22.14,20.72-22.76,64.84,15.2,79.09,4.48,1.68,28.68,7.34,33.44,7.81.63.06.85-4.7.65-13.16h0ZM2204.73,1149.64c16.96-3.43,23.58-5.77,31.66-11.16,23.45-15.66,25.23-52.62,3.49-72.95-18.8-17.58-38.13-14.95-65.61-10.7,10,30.72,17.1,55.93,16.36,84.43-.19,7.31-.31,13.28-.26,13.28.06,0,6.51-1.3,14.37-2.91h0ZM1717.07,1128.51c0-1.2-14.62-35.85,4.7-69.13,15.6-26.88,45.18-34.13,46.72-35.3,1.15-.88-32.06-39.56-14.31-90.76,6.78-19.45,24.81-37.44,45.62-45.49,16.49-6.37,21.13-7.17,41.16-7.17,21.52,0,28.27,1.4,47.19,9.87.76.33,1.27-3.6,1.67-12.68,1.16-26.76,9.25-46.04,27.59-65.65,22.1-23.69,49.36-35.24,83.1-35.24s60.99,11.55,83.12,35.24c18.31,19.61,26.42,38.89,27.58,65.65.4,9.08.92,13.01,1.67,12.68,18.9-8.46,25.65-9.87,47.18-9.87,20.02,0,24.67.8,41.15,7.17,53.96,20.87,64.17,85.61,34.4,130.72-5.57,8.43-5.15,3.09,15.12,13.43,9.64,4.92,22.8,17.56,28.52,27.4,19.64,33.84,4.08,68.09,5.2,69.24.46.47,67.94-21.18,82.42-75.18,2.44-9.1,2.44-32.16,0-43.61-12.63-59.13-62.94-110.67-117.48-138.16-11.59-5.84-23.22-10.34-50.61-19.52-50.76-17.03-95.52-35.98-132.87-64.1-26.78-20.16-52.68-49.57-62.5-80.23-3.01-9.4-2.78-9.33-5.8,0-9.96,30.81-35.58,59.94-62.5,80.23-37.3,28.12-82.14,47.07-132.88,64.1-36.91,12.39-46.9,16.7-68.1,29.3-21.16,12.58-45.41,33.22-61.07,51.99-15.2,18.24-30.46,45.55-35.74,63.98-5.75,20.05-6.9,41.81-3,56.5,14.11,53.23,82.84,76.03,82.76,74.58h-.01ZM1850.49,1008.02c15.62-24.04,38.64-47.22,57.09-57.51,6.6-3.68,7.11-1.51-6.92-15.14-9.77-9.48-12.99-11.96-20.06-15.4-18.88-9.21-38.16-10.47-59.1-3.85-50.38,15.92-44.97,71.16-22.32,95.76,10.74,11.65,21.12,14.6,37.26,20.54l14.05-24.4ZM2188.15,1022.99c7.9-4.19,18.55-15.48,22.79-24.16,11.7-23.95,8.97-53.2-6.35-68.01-21.28-20.58-56.96-24.1-84.18-10.84-7.06,3.44-10.29,5.92-20.07,15.4-14.04,13.65-13.5,11.47-6.91,15.14,23.46,13.09,53.87,47.21,68.31,76.62l2.61,5.34,23.81-9.49ZM1614.23,961.09c12.47-26.28,33.41-53.69,57.12-74.82,32.3-28.77,66.03-47.14,113.19-61.63,68.69-21.11,137.77-48.6,175.9-99.51,23.93-31.94,33.85-72.5,38.6-78.61,1.42-1.83,1.47-1.83,2.91,0,4.76,6.18,14.7,46.7,38.57,78.57,38.08,50.86,107.02,78.36,175.94,99.54,47.16,14.49,80.88,32.87,113.2,61.63,33.21,29.58,52.52,60.59,67.29,99.29-.83-31.68-.52-48.85-15.08-78.22-29.33-59.18-87.81-86.59-161.37-119.96-38.54-17.49-62.22-28.84-76.29-36.6-42.24-23.25-79.83-57.35-110.56-100.29-11.26-15.72-25.76-41.62-30.31-54.1-2.74-7.48-2.92-7.5-5.65,0-4.54,12.47-19.07,38.37-30.3,54.1-18.38,25.68-43.05,52.22-64.49,69.37-28.72,22.97-49.78,34.6-122.38,67.52-65.1,29.52-91.32,44.07-116.57,64.7-38.77,31.66-59.95,73.12-59.76,120.91l.04,12.57,10.03-24.46h0ZM1575.6,968.4c-.6-8.51,1.23-27.62,3.77-39.31,9.43-43.38,36.19-83.3,75.94-113.21l7.5-5.66c-26.96-22.9-49.11-44.15-79.03-58.51-32.3-15.52-65.08-19.88-92.85-12.33-35.3,9.59-65.67,42.44-79.95,86.44-6.24,19.21-8.89,34.29-11.51,65.56-1.69,20.19-1.87,28.28-.64,28.28.46,0,7.05-.72,14.61-1.6,56.57-6.58,115.19,9.78,152.95,48.2,10.54,10.72,9.91,11.35,9.21,2.15h0ZM2434.63,965.96c39.05-38.24,96.15-54.49,152.91-47.9,16.72,1.94,15.47,3.4,15.47-3.64,0-6.46-2.6-37.98-4.02-48.76-11.65-88.52-69.29-152.05-161.47-122.24-38.32,12.39-64.97,37.39-99.34,66.8l7.5,5.66c39.75,29.92,66.52,69.83,75.94,113.21,2.55,11.69,4.37,30.81,3.77,39.31-.66,9.17-2.56,9.09,9.24-2.44h0ZM1941.63,934.47c3.21-1.11,11.43-3.22,18.24-4.67,11.81-2.55,13.68-2.69,40.63-2.69s28.81.14,40.64,2.69c6.8,1.46,15.01,3.56,18.24,4.67,3.21,1.11,6.03,2.03,6.26,2.03,1.16,0,11.53-23.88,13.26-30.5,3.91-15.06,2.37-33.08-4.08-47.43-7.8-17.3-24.52-33.74-41.18-40.41-19.5-7.81-46.77-7.81-66.28,0-16.64,6.68-33.37,23.11-41.16,40.41-6.47,14.35-8.01,32.37-4.08,47.43,1.7,6.62,12.1,30.5,13.26,30.5.23,0,3.03-.92,6.26-2.03h0Z"/>
</svg>